<?xml version="1.0" encoding="UTF-8"?>
<svg id="Layer_1" xmlns="http://www.w3.org/2000/svg" xmlns:xlink="http://www.w3.org/1999/xlink" version="1.1" viewBox="0 0 1200 630">
  <!-- Generator: Adobe Illustrator 30.3.0, SVG Export Plug-In . SVG Version: 2.1.3 Build 182)  -->
  <defs>
    <style>
      .st0 {
        letter-spacing: 0em;
      }

      .st0, .st1, .st2, .st3, .st4, .st5, .st6, .st7, .st8, .st9, .st10 {
        fill: #fff;
      }

      .st0, .st1, .st4, .st11 {
        font-size: 11px;
      }

      .st0, .st4, .st9 {
        font-family: ArialMT, Arial;
      }

      .st12 {
        mask: url(#mask);
      }

      .st13 {
        fill: #146eb4;
      }

      .st13, .st1, .st14, .st15, .st3, .st5, .st11, .st6 {
        font-family: Arial-BoldMT, Arial;
        font-weight: 700;
      }

      .st13, .st14 {
        font-size: 34px;
      }

      .st13, .st14, .st15, .st3, .st16, .st11, .st6 {
        isolation: isolate;
      }

      .st1 {
        letter-spacing: .1em;
      }

      .st2 {
        fill-opacity: 0;
        stroke-opacity: .1;
      }

      .st2, .st17, .st10 {
        stroke: #fff;
      }

      .st14, .st15, .st11, .st18, .st19, .st20 {
        fill: #f8991d;
      }

      .st15 {
        font-size: 72px;
      }

      .st3 {
        font-size: 52px;
      }

      .st4 {
        letter-spacing: 0em;
      }

      .st21 {
        fill: url(#radial-gradient);
      }

      .st22 {
        fill: url(#linear-gradient);
      }

      .st5 {
        letter-spacing: 0em;
      }

      .st5, .st9 {
        font-size: 10px;
      }

      .st11 {
        letter-spacing: .1em;
      }

      .st6 {
        font-size: 96px;
        opacity: 1;
      }

      .st18 {
        fill-opacity: .2;
        stroke: #f8991d;
        stroke-opacity: .4;
      }

      .st17 {
        fill: none;
        stroke-opacity: .2;
        stroke-width: .5px;
      }

      .st23 {
        opacity: .3;
      }

      .st24 {
        fill: url(#radial-gradient1);
      }

      .st25 {
        fill: url(#radial-gradient2);
      }

      .st7 {
        fill-opacity: 0;
      }

      .st19 {
        fill-opacity: .8;
      }

      .st20 {
        fill-opacity: .6;
      }

      .st8 {
        font-family: Arial-ItalicMT, Arial;
        font-size: 26px;
        font-style: italic;
      }

      .st10 {
        fill-opacity: 0;
        stroke-opacity: .1;
      }
    </style>
    <linearGradient id="linear-gradient" x1="0" y1="629.3" x2="1200" y2="-.7" gradientTransform="translate(0 629.3) scale(1 -1)" gradientUnits="userSpaceOnUse">
      <stop offset="0" stop-color="#0d1117"/>
      <stop offset="1" stop-color="#111820"/>
    </linearGradient>
    <radialGradient id="radial-gradient" cx="179.1" cy="612.2" fx="179.1" fy="612.2" r=".5" gradientTransform="translate(-214621 385750.6) scale(1200 -630)" gradientUnits="userSpaceOnUse">
      <stop offset="0" stop-color="#146eb4" stop-opacity=".3"/>
      <stop offset="1" stop-color="#146eb4" stop-opacity="0"/>
    </radialGradient>
    <radialGradient id="radial-gradient1" cx="179.7" cy="611.5" fx="179.7" fy="611.5" r=".4" gradientTransform="translate(-214621 385750.6) scale(1200 -630)" gradientUnits="userSpaceOnUse">
      <stop offset="0" stop-color="#f8991d" stop-opacity=".2"/>
      <stop offset="1" stop-color="#f8991d" stop-opacity="0"/>
    </radialGradient>
    <radialGradient id="radial-gradient2" cx="179.4" cy="611.8" fx="179.4" fy="611.8" r=".6" gradientTransform="translate(-214621 385750.6) scale(1200 -630)" gradientUnits="userSpaceOnUse">
      <stop offset="0" stop-color="#fff" stop-opacity=".6"/>
      <stop offset="1" stop-color="#fff" stop-opacity="0"/>
    </radialGradient>
    <mask id="mask" x="0" y="0" width="1200" height="630" maskUnits="userSpaceOnUse">
      <g id="grid-mask">
        <rect class="st25" y="0" width="1200" height="630"/>
      </g>
    </mask>
  </defs>
  <rect class="st22" y="0" width="1200" height="630"/>
  <rect class="st21" y="0" width="1200" height="630"/>
  <rect class="st24" y="0" width="1200" height="630"/>
  <g class="st12">
    <g class="st23">
      <line class="st17" y1="48" x2="1200" y2="48"/>
      <line class="st17" y1="96" x2="1200" y2="96"/>
      <line class="st17" y1="144" x2="1200" y2="144"/>
      <line class="st17" y1="192" x2="1200" y2="192"/>
      <line class="st17" y1="240" x2="1200" y2="240"/>
      <line class="st17" y1="288" x2="1200" y2="288"/>
      <line class="st17" y1="336" x2="1200" y2="336"/>
      <line class="st17" y1="384" x2="1200" y2="384"/>
      <line class="st17" y1="432" x2="1200" y2="432"/>
      <line class="st17" y1="480" x2="1200" y2="480"/>
      <line class="st17" y1="528" x2="1200" y2="528"/>
      <line class="st17" y1="576" x2="1200" y2="576"/>
      <line class="st17" x1="48" y1="0" x2="48" y2="630"/>
      <line class="st17" x1="96" y1="0" x2="96" y2="630"/>
      <line class="st17" x1="144" y1="0" x2="144" y2="630"/>
      <line class="st17" x1="192" y1="0" x2="192" y2="630"/>
      <line class="st17" x1="240" y1="0" x2="240" y2="630"/>
      <line class="st17" x1="288" y1="0" x2="288" y2="630"/>
      <line class="st17" x1="336" y1="0" x2="336" y2="630"/>
      <line class="st17" x1="384" y1="0" x2="384" y2="630"/>
      <line class="st17" x1="432" y1="0" x2="432" y2="630"/>
      <line class="st17" x1="480" y1="0" x2="480" y2="630"/>
      <line class="st17" x1="528" y1="0" x2="528" y2="630"/>
      <line class="st17" x1="576" y1="0" x2="576" y2="630"/>
      <line class="st17" x1="624" y1="0" x2="624" y2="630"/>
      <line class="st17" x1="672" y1="0" x2="672" y2="630"/>
      <line class="st17" x1="720" y1="0" x2="720" y2="630"/>
      <line class="st17" x1="768" y1="0" x2="768" y2="630"/>
      <line class="st17" x1="816" y1="0" x2="816" y2="630"/>
      <line class="st17" x1="864" y1="0" x2="864" y2="630"/>
      <line class="st17" x1="912" y1="0" x2="912" y2="630"/>
      <line class="st17" x1="960" y1="0" x2="960" y2="630"/>
      <line class="st17" x1="1008" y1="0" x2="1008" y2="630"/>
      <line class="st17" x1="1056" y1="0" x2="1056" y2="630"/>
      <line class="st17" x1="1104" y1="0" x2="1104" y2="630"/>
      <line class="st17" x1="1152" y1="0" x2="1152" y2="630"/>
    </g>
  </g>
  <path class="st20" d="M81.5,80h0c.8,0,1.5.9,1.5,2v466c0,1.1-.7,2-1.5,2h0c-.8,0-1.5-.9-1.5-2V82c0-1.1.7-2,1.5-2Z"/>
  <text class="st6" transform="translate(112 300)"><tspan x="0" y="0">TECOTEC</tspan></text>
  <text class="st15" transform="translate(112 390)"><tspan x="0" y="0">Technology</tspan></text>
  <path class="st19" d="M114,418h76c1.1,0,2,.9,2,2h0c0,1.1-.9,2-2,2h-76c-1.1,0-2-.9-2-2h0c0-1.1.9-2,2-2Z"/>
  <g class="st16">
    <text class="st8" transform="translate(112 470)"><tspan x="0" y="0">Solutions to bring insight &amp; drive innovation</tspan></text>
  </g>
  <rect class="st10" x="820" y="140" width="300" height="350" rx="16" ry="16"/>
  <path class="st18" d="M862,172h120c7.7,0,14,6.3,14,14h0c0,7.7-6.3,14-14,14h-120c-7.7,0-14-6.3-14-14h0c0-7.7,6.3-14,14-14Z"/>
  <text class="st11" transform="translate(859.4 191)"><tspan x="0" y="0">BRAND PLAYBOOK</tspan></text>
  <text class="st3" transform="translate(941.1 260)"><tspan x="0" y="0">15</tspan></text>
  <g class="st16">
    <text class="st1" transform="translate(917.6 284)"><tspan x="0" y="0">PHẦN NỘI DUNG</tspan></text>
  </g>
  <rect class="st7" x="880" y="305" width="180" height="1"/>
  <text class="st14" transform="translate(906.5 350)"><tspan x="0" y="0">9</tspan></text>
  <g class="st16">
    <text class="st5" transform="translate(859.8 368)"><tspan x="0" y="0">MÀU THƯƠNG HIỆU</tspan></text>
  </g>
  <text class="st13" transform="translate(990.9 350)"><tspan x="0" y="0">v1.0</tspan></text>
  <g class="st16">
    <text class="st5" transform="translate(992 368)"><tspan x="0" y="0">PHIÊN BẢN</tspan></text>
  </g>
  <rect class="st7" x="880" y="390" width="180" height="1"/>
  <g class="st16">
    <text class="st9" transform="translate(879.4 438)"><tspan x="0" y="0">mkt-tecotec.github.io/T3-Brand-Playbook</tspan></text>
  </g>
  <path class="st2" d="M95,560h190c8.3,0,15,6.7,15,15h0c0,8.3-6.7,15-15,15H95c-8.3,0-15-6.7-15-15h0c0-8.3,6.7-15,15-15Z"/>
  <g class="st16">
    <text class="st0" transform="translate(157.3 580)"><tspan x="0" y="0">tecotec.tech</tspan></text>
  </g>
  <g class="st16">
    <text class="st4" transform="translate(1075.7 580)"><tspan x="0" y="0">Tháng 4 · 2026</tspan></text>
  </g>
</svg>