<svg width="94" height="134" viewBox="0 0 94 134" fill="none" xmlns="http://www.w3.org/2000/svg">
<g clip-path="url(#clip0_38_849)">
<path d="M39.65 2.48C39.65 3.85 38.54 4.96 37.17 4.96C35.8 4.96 34.69 3.85 34.69 2.48C34.69 1.11 35.8 0 37.17 0C38.54 0 39.65 1.11 39.65 2.48Z" fill="#F8991D"/>
<path d="M16.97 19.45C16.97 20.73 15.93 21.76 14.66 21.76C13.39 21.76 12.34 20.72 12.34 19.45C12.34 18.18 13.38 17.13 14.66 17.13C15.94 17.13 16.97 18.17 16.97 19.45Z" fill="#F8991D"/>
<path d="M23.43 16.07C23.43 17.35 22.39 18.38 21.11 18.38C19.83 18.38 18.79 17.34 18.79 16.07C18.79 14.8 19.83 13.75 21.11 13.75C22.39 13.75 23.43 14.78 23.43 16.07Z" fill="#F8991D"/>
<path d="M29.88 12.69C29.88 13.97 28.84 15.01 27.56 15.01C26.28 15.01 25.24 13.97 25.24 12.69C25.24 11.41 26.28 10.38 27.56 10.38C28.84 10.38 29.88 11.42 29.88 12.69Z" fill="#F8991D"/>
<path d="M36.89 9.64001C36.89 10.83 35.93 11.79 34.74 11.79C33.55 11.79 32.59 10.83 32.59 9.64001C32.59 8.45001 33.55 7.49001 34.74 7.49001C35.93 7.49001 36.89 8.45001 36.89 9.64001Z" fill="#F8991D"/>
<path d="M34.81 15.73C34.81 16.73 34 17.55 32.99 17.55C31.98 17.55 31.17 16.74 31.17 15.73C31.17 14.72 31.98 13.91 32.99 13.91C34 13.91 34.81 14.72 34.81 15.73Z" fill="#F8991D"/>
<path d="M33.11 21.52C33.11 22.34 32.45 23.01 31.62 23.01C30.79 23.01 30.13 22.34 30.13 21.52C30.13 20.7 30.8 20.03 31.62 20.03C32.44 20.03 33.11 20.7 33.11 21.52Z" fill="#F8991D"/>
<path d="M32.18 26.05C32.18 26.69 31.66 27.21 31.02 27.21C30.38 27.21 29.86 26.69 29.86 26.05C29.86 25.41 30.38 24.89 31.02 24.89C31.66 24.89 32.18 25.41 32.18 26.05Z" fill="#F8991D"/>
<path d="M31.46 30.27C31.46 30.72 31.09 31.1 30.63 31.1C30.17 31.1 29.8 30.73 29.8 30.27C29.8 29.81 30.17 29.44 30.63 29.44C31.09 29.44 31.46 29.81 31.46 30.27Z" fill="#F8991D"/>
<path d="M16.98 26.03C16.98 27.22 16.02 28.18 14.83 28.18C13.64 28.18 12.68 27.22 12.68 26.03C12.68 24.84 13.64 23.88 14.83 23.88C16.02 23.88 16.98 24.84 16.98 26.03Z" fill="#F8991D"/>
<path d="M22.68 22.08C22.68 23.27 21.72 24.23 20.53 24.23C19.34 24.23 18.38 23.27 18.38 22.08C18.38 20.89 19.34 19.93 20.53 19.93C21.72 19.93 22.68 20.89 22.68 22.08Z" fill="#F8991D"/>
<path d="M22.42 27.37C22.42 28.47 21.53 29.35 20.44 29.35C19.35 29.35 18.46 28.46 18.46 27.37C18.46 26.28 19.34 25.39 20.44 25.39C21.54 25.39 22.42 26.28 22.42 27.37Z" fill="#F8991D"/>
<path d="M28.08 23.93C28.08 25.03 27.19 25.91 26.1 25.91C25.01 25.91 24.11 25.02 24.11 23.93C24.11 22.84 25 21.95 26.1 21.95C27.2 21.95 28.08 22.84 28.08 23.93Z" fill="#F8991D"/>
<path d="M22.89 32.03C22.89 33.03 22.08 33.85 21.07 33.85C20.06 33.85 19.25 33.04 19.25 32.03C19.25 31.02 20.06 30.21 21.07 30.21C22.08 30.21 22.89 31.02 22.89 32.03Z" fill="#F8991D"/>
<path d="M27.61 28.78C27.61 29.79 26.8 30.6 25.79 30.6C24.78 30.6 23.97 29.79 23.97 28.78C23.97 27.77 24.78 26.96 25.79 26.96C26.8 26.96 27.61 27.77 27.61 28.78Z" fill="#F8991D"/>
<path d="M23.92 36.42C23.92 37.33 23.18 38.07 22.27 38.07C21.36 38.07 20.62 37.33 20.62 36.42C20.62 35.51 21.36 34.77 22.27 34.77C23.18 34.77 23.92 35.51 23.92 36.42Z" fill="#F8991D"/>
<path d="M27.7 32.99C27.7 33.9 26.96 34.64 26.05 34.64C25.14 34.64 24.4 33.9 24.4 32.99C24.4 32.08 25.14 31.34 26.05 31.34C26.96 31.34 27.7 32.08 27.7 32.99Z" fill="#F8991D"/>
<path d="M25.98 40.07C25.98 40.89 25.31 41.56 24.49 41.56C23.67 41.56 23 40.89 23 40.07C23 39.25 23.66 38.58 24.49 38.58C25.32 38.58 25.98 39.25 25.98 40.07Z" fill="#F8991D"/>
<path d="M28.71 36.54C28.71 37.36 28.04 38.03 27.22 38.03C26.4 38.03 25.73 37.37 25.73 36.54C25.73 35.71 26.4 35.05 27.22 35.05C28.04 35.05 28.71 35.71 28.71 36.54Z" fill="#F8991D"/>
<path d="M28.38 42.88C28.38 43.61 27.79 44.2 27.06 44.2C26.33 44.2 25.74 43.61 25.74 42.88C25.74 42.15 26.33 41.56 27.06 41.56C27.79 41.56 28.38 42.15 28.38 42.88Z" fill="#F8991D"/>
<path d="M30.17 39.52C30.17 40.25 29.58 40.84 28.85 40.84C28.12 40.84 27.53 40.25 27.53 39.52C27.53 38.79 28.12 38.2 28.85 38.2C29.58 38.2 30.17 38.79 30.17 39.52Z" fill="#F8991D"/>
<path d="M30.47 45.32C30.47 45.96 29.95 46.48 29.31 46.48C28.67 46.48 28.15 45.96 28.15 45.32C28.15 44.68 28.67 44.16 29.31 44.16C29.95 44.16 30.47 44.68 30.47 45.32Z" fill="#F8991D"/>
<path d="M31.74 42.18C31.74 42.82 31.22 43.34 30.58 43.34C29.94 43.34 29.42 42.82 29.42 42.18C29.42 41.54 29.94 41.02 30.58 41.02C31.22 41.02 31.74 41.54 31.74 42.18Z" fill="#F8991D"/>
<path d="M32.43 47.35C32.43 47.9 31.99 48.34 31.44 48.34C30.89 48.34 30.45 47.9 30.45 47.35C30.45 46.8 30.89 46.36 31.44 46.36C31.99 46.36 32.43 46.8 32.43 47.35Z" fill="#F8991D"/>
<path d="M33.29 44.36C33.29 44.91 32.85 45.35 32.3 45.35C31.75 45.35 31.31 44.91 31.31 44.36C31.31 43.81 31.75 43.37 32.3 43.37C32.85 43.37 33.29 43.81 33.29 44.36Z" fill="#F8991D"/>
<path d="M34.27 49.03C34.27 49.49 33.9 49.86 33.44 49.86C32.98 49.86 32.61 49.49 32.61 49.03C32.61 48.57 32.98 48.2 33.44 48.2C33.9 48.2 34.27 48.57 34.27 49.03Z" fill="#F8991D"/>
<path d="M34.77 46.19C34.77 46.65 34.4 47.02 33.94 47.02C33.48 47.02 33.11 46.65 33.11 46.19C33.11 45.73 33.48 45.36 33.94 45.36C34.4 45.36 34.77 45.73 34.77 46.19Z" fill="#F8991D"/>
<path d="M35.9 50.43C35.9 50.8 35.61 51.09 35.24 51.09C34.87 51.09 34.58 50.79 34.58 50.43C34.58 50.07 34.88 49.77 35.24 49.77C35.6 49.77 35.9 50.07 35.9 50.43Z" fill="#F8991D"/>
<path d="M36.24 47.63C36.24 47.99 35.95 48.29 35.58 48.29C35.21 48.29 34.92 48 34.92 47.63C34.92 47.26 35.21 46.97 35.58 46.97C35.95 46.97 36.24 47.27 36.24 47.63Z" fill="#F8991D"/>
<path d="M28.66 18.66C28.66 19.85 27.7 20.81 26.51 20.81C25.32 20.81 24.36 19.85 24.36 18.66C24.36 17.47 25.32 16.51 26.51 16.51C27.7 16.51 28.66 17.47 28.66 18.66Z" fill="#F8991D"/>
<path d="M17.18 31.75C17.18 32.85 16.29 33.73 15.2 33.73C14.11 33.73 13.22 32.84 13.22 31.75C13.22 30.66 14.11 29.76 15.2 29.76C16.29 29.76 17.18 30.65 17.18 31.75Z" fill="#F8991D"/>
<path d="M17.87 36.86C17.87 37.87 17.06 38.68 16.05 38.68C15.04 38.68 14.23 37.87 14.23 36.86C14.23 35.85 15.04 35.04 16.05 35.04C17.06 35.04 17.87 35.85 17.87 36.86Z" fill="#F8991D"/>
<path d="M19.17 41.52C19.17 42.44 18.43 43.17 17.52 43.17C16.61 43.17 15.87 42.43 15.87 41.52C15.87 40.61 16.61 39.87 17.52 39.87C18.43 39.87 19.17 40.61 19.17 41.52Z" fill="#F8991D"/>
<path d="M21.47 45.36C21.47 46.18 20.8 46.85 19.98 46.85C19.16 46.85 18.49 46.18 18.49 45.36C18.49 44.54 19.15 43.87 19.98 43.87C20.81 43.87 21.47 44.53 21.47 45.36Z" fill="#F8991D"/>
<path d="M24.16 48.5C24.16 49.23 23.57 49.82 22.84 49.82C22.11 49.82 21.52 49.23 21.52 48.5C21.52 47.77 22.11 47.18 22.84 47.18C23.57 47.18 24.16 47.77 24.16 48.5Z" fill="#F8991D"/>
<path d="M24.99 44.13C24.99 44.86 24.4 45.45 23.67 45.45C22.94 45.45 22.35 44.86 22.35 44.13C22.35 43.4 22.94 42.81 23.67 42.81C24.4 42.81 24.99 43.4 24.99 44.13Z" fill="#F8991D"/>
<path d="M27.04 50.84C27.04 51.48 26.52 52 25.88 52C25.24 52 24.72 51.48 24.72 50.84C24.72 50.2 25.24 49.68 25.88 49.68C26.52 49.68 27.04 50.2 27.04 50.84Z" fill="#F8991D"/>
<path d="M27.48 46.91C27.48 47.55 26.96 48.07 26.32 48.07C25.68 48.07 25.16 47.55 25.16 46.91C25.16 46.27 25.68 45.75 26.32 45.75C26.96 45.75 27.48 46.27 27.48 46.91Z" fill="#F8991D"/>
<path d="M29.68 52.59C29.68 53.14 29.24 53.58 28.69 53.58C28.14 53.58 27.7 53.14 27.7 52.59C27.7 52.04 28.14 51.6 28.69 51.6C29.24 51.6 29.68 52.04 29.68 52.59Z" fill="#F8991D"/>
<path d="M29.79 49.09C29.79 49.64 29.35 50.08 28.8 50.08C28.25 50.08 27.81 49.64 27.81 49.09C27.81 48.54 28.25 48.1 28.8 48.1C29.35 48.1 29.79 48.54 29.79 49.09Z" fill="#F8991D"/>
<path d="M32.04 54.3C32.04 54.76 31.67 55.13 31.21 55.13C30.75 55.13 30.38 54.76 30.38 54.3C30.38 53.84 30.75 53.47 31.21 53.47C31.67 53.47 32.04 53.84 32.04 54.3Z" fill="#F8991D"/>
<path d="M31.89 50.92C31.89 51.38 31.52 51.75 31.07 51.75C30.62 51.75 30.24 51.38 30.24 50.92C30.24 50.46 30.61 50.09 31.07 50.09C31.53 50.09 31.89 50.46 31.89 50.92Z" fill="#F8991D"/>
<path d="M34.09 55.62C34.09 55.99 33.79 56.28 33.43 56.28C33.07 56.28 32.77 55.99 32.77 55.62C32.77 55.25 33.07 54.96 33.43 54.96C33.79 54.96 34.09 55.25 34.09 55.62Z" fill="#F8991D"/>
<path d="M33.98 52.35C33.98 52.71 33.69 53.01 33.32 53.01C32.95 53.01 32.66 52.71 32.66 52.35C32.66 51.99 32.96 51.69 33.32 51.69C33.68 51.69 33.98 51.98 33.98 52.35Z" fill="#F8991D"/>
<path d="M32.05 5.71C32.05 7.08 30.94 8.19 29.57 8.19C28.2 8.19 27.09 7.08 27.09 5.71C27.09 4.34 28.2 3.23 29.57 3.23C30.94 3.23 32.05 4.34 32.05 5.71Z" fill="#F8991D"/>
<path d="M24.46 8.95C24.46 10.32 23.35 11.43 21.98 11.43C20.61 11.43 19.5 10.32 19.5 8.95C19.5 7.58 20.61 6.47 21.98 6.47C23.35 6.47 24.46 7.58 24.46 8.95Z" fill="#F8991D"/>
<path d="M16.87 12.18C16.87 13.55 15.76 14.66 14.39 14.66C13.02 14.66 11.91 13.55 11.91 12.18C11.91 10.81 13.02 9.7 14.39 9.7C15.76 9.7 16.87 10.81 16.87 12.18Z" fill="#F8991D"/>
<path d="M35.82 56.78C35.82 57.05 35.6 57.28 35.32 57.28C35.04 57.28 34.83 57.06 34.83 56.78C34.83 56.5 35.05 56.28 35.32 56.28C35.59 56.28 35.82 56.51 35.82 56.78Z" fill="#F8991D"/>
<path d="M35.99 53.48C35.99 53.75 35.77 53.98 35.49 53.98C35.21 53.98 35 53.76 35 53.48C35 53.2 35.22 52.98 35.49 52.98C35.76 52.98 35.99 53.2 35.99 53.48Z" fill="#F8991D"/>
<path d="M84.2 25C82.91 25.46 81.49 24.78 81.03 23.49C80.57 22.2 81.25 20.78 82.54 20.32C83.83 19.86 85.25 20.54 85.71 21.83C86.17 23.12 85.49 24.54 84.2 25Z" fill="#F8991D"/>
<path d="M60.63 9.3C59.42 9.73 58.1 9.1 57.68 7.89C57.25 6.68 57.88 5.36 59.09 4.93C60.3 4.5 61.62 5.14 62.05 6.34C62.48 7.54 61.85 8.87 60.64 9.29" fill="#F8991D"/>
<path d="M65.97 14.25C64.76 14.68 63.44 14.05 63.02 12.84C62.59 11.63 63.22 10.31 64.43 9.89C65.64 9.46 66.96 10.09 67.38 11.3C67.81 12.51 67.18 13.83 65.97 14.26" fill="#F8991D"/>
<path d="M71.31 19.21C70.1 19.64 68.78 19.01 68.36 17.8C67.93 16.59 68.56 15.27 69.77 14.84C70.98 14.41 72.3 15.04 72.73 16.25C73.16 17.46 72.53 18.78 71.32 19.2" fill="#F8991D"/>
<path d="M76.53 24.79C75.41 25.19 74.18 24.6 73.79 23.48C73.39 22.36 73.98 21.13 75.1 20.74C76.22 20.34 77.45 20.93 77.84 22.05C78.23 23.17 77.65 24.4 76.53 24.8" fill="#F8991D"/>
<path d="M70.1 24.86C69.15 25.19 68.11 24.7 67.78 23.75C67.44 22.8 67.94 21.76 68.89 21.43C69.84 21.09 70.88 21.59 71.21 22.54C71.55 23.49 71.05 24.53 70.1 24.86Z" fill="#F8991D"/>
<path d="M64.07 25.2C63.29 25.47 62.44 25.07 62.17 24.29C61.9 23.51 62.3 22.66 63.07 22.39C63.85 22.12 64.7 22.52 64.97 23.3C65.24 24.07 64.84 24.93 64.06 25.2" fill="#F8991D"/>
<path d="M59.48 25.84C58.88 26.05 58.22 25.74 58 25.14C57.79 24.54 58.1 23.88 58.71 23.66C59.31 23.45 59.97 23.76 60.19 24.36C60.4 24.96 60.09 25.63 59.49 25.84" fill="#F8991D"/>
<path d="M55.26 26.57C54.83 26.72 54.36 26.5 54.21 26.07C54.06 25.64 54.28 25.17 54.71 25.01C55.14 24.86 55.61 25.08 55.77 25.51C55.92 25.94 55.7 26.41 55.27 26.57" fill="#F8991D"/>
<path d="M54.43 11.5C53.31 11.9 52.08 11.31 51.69 10.19C51.29 9.07001 51.88 7.84001 53 7.45001C54.12 7.05001 55.35 7.64001 55.74 8.76001C56.14 9.88001 55.55 11.11 54.43 11.5Z" fill="#F8991D"/>
<path d="M60.06 15.56C58.94 15.96 57.71 15.37 57.32 14.25C56.92 13.13 57.51 11.9 58.63 11.51C59.75 11.11 60.98 11.7 61.37 12.82C61.77 13.94 61.18 15.17 60.06 15.56Z" fill="#F8991D"/>
<path d="M54.99 17.08C53.96 17.45 52.82 16.91 52.46 15.87C52.09 14.84 52.64 13.7 53.67 13.34C54.7 12.97 55.84 13.51 56.2 14.55C56.57 15.58 56.03 16.72 54.99 17.08Z" fill="#F8991D"/>
<path d="M60.11 21.26C59.08 21.63 57.94 21.09 57.58 20.05C57.21 19.02 57.75 17.88 58.79 17.52C59.82 17.16 60.96 17.7 61.32 18.73C61.69 19.76 61.14 20.9 60.11 21.26Z" fill="#F8991D"/>
<path d="M50.75 19.08C49.8 19.42 48.76 18.92 48.43 17.97C48.09 17.02 48.59 15.98 49.54 15.65C50.49 15.31 51.52 15.81 51.86 16.76C52.19 17.71 51.7 18.75 50.75 19.08Z" fill="#F8991D"/>
<path d="M55.39 22.43C54.44 22.77 53.41 22.27 53.07 21.32C52.73 20.37 53.23 19.33 54.18 19C55.13 18.67 56.17 19.16 56.5 20.11C56.84 21.06 56.34 22.1 55.39 22.43Z" fill="#F8991D"/>
<path d="M46.95 21.51C46.09 21.81 45.14 21.36 44.84 20.5C44.54 19.64 44.99 18.69 45.85 18.39C46.71 18.08 47.66 18.54 47.96 19.4C48.26 20.26 47.81 21.21 46.95 21.51Z" fill="#F8991D"/>
<path d="M51.45 23.93C50.59 24.23 49.65 23.78 49.34 22.92C49.04 22.06 49.49 21.11 50.35 20.81C51.21 20.5 52.15 20.95 52.46 21.82C52.77 22.68 52.32 23.63 51.45 23.93Z" fill="#F8991D"/>
<path d="M44.2 24.67C43.42 24.94 42.58 24.54 42.3 23.77C42.03 22.99 42.43 22.14 43.21 21.87C43.99 21.6 44.83 22 45.11 22.78C45.38 23.55 44.98 24.41 44.2 24.68" fill="#F8991D"/>
<path d="M48.44 26.06C47.67 26.33 46.82 25.93 46.54 25.15C46.27 24.37 46.67 23.53 47.45 23.25C48.23 22.98 49.07 23.38 49.35 24.16C49.63 24.93 49.22 25.79 48.44 26.06Z" fill="#F8991D"/>
<path d="M42.36 27.86C41.67 28.1 40.92 27.74 40.67 27.05C40.43 26.36 40.79 25.61 41.47 25.36C42.16 25.12 42.91 25.48 43.16 26.17C43.4 26.86 43.04 27.61 42.35 27.86" fill="#F8991D"/>
<path d="M46.12 28.43C45.43 28.67 44.68 28.32 44.43 27.62C44.18 26.93 44.55 26.18 45.24 25.93C45.93 25.69 46.69 26.05 46.93 26.74C47.17 27.43 46.81 28.18 46.12 28.43Z" fill="#F8991D"/>
<path d="M40.75 30.65C40.15 30.86 39.49 30.55 39.27 29.95C39.06 29.35 39.37 28.69 39.97 28.47C40.57 28.26 41.24 28.57 41.45 29.18C41.66 29.78 41.35 30.44 40.74 30.66" fill="#F8991D"/>
<path d="M44.14 30.81C43.54 31.02 42.88 30.71 42.66 30.1C42.45 29.5 42.76 28.84 43.36 28.62C43.96 28.41 44.62 28.72 44.84 29.32C45.05 29.92 44.74 30.58 44.13 30.8" fill="#F8991D"/>
<path d="M39.5 33.18C38.98 33.36 38.42 33.09 38.23 32.58C38.05 32.06 38.32 31.5 38.83 31.31C39.35 31.13 39.91 31.4 40.1 31.91C40.28 32.43 40.01 32.99 39.5 33.18Z" fill="#F8991D"/>
<path d="M42.59 32.99C42.07 33.17 41.51 32.9 41.33 32.38C41.15 31.86 41.42 31.3 41.93 31.11C42.45 30.93 43.01 31.2 43.2 31.71C43.38 32.23 43.11 32.79 42.59 32.98" fill="#F8991D"/>
<path d="M38.52 35.48C38.09 35.63 37.62 35.41 37.46 34.98C37.31 34.55 37.53 34.08 37.96 33.92C38.39 33.77 38.86 33.99 39.01 34.42C39.16 34.85 38.94 35.32 38.51 35.47" fill="#F8991D"/>
<path d="M41.37 35C40.94 35.15 40.47 34.93 40.31 34.5C40.16 34.07 40.38 33.6 40.81 33.45C41.24 33.3 41.71 33.52 41.87 33.95C42.02 34.38 41.8 34.85 41.37 35.01" fill="#F8991D"/>
<path d="M37.74 37.48C37.4 37.6 37.02 37.42 36.9 37.08C36.78 36.73 36.96 36.36 37.3 36.23C37.64 36.11 38.02 36.29 38.14 36.63C38.26 36.97 38.08 37.35 37.74 37.48Z" fill="#F8991D"/>
<path d="M40.5 36.86C40.16 36.98 39.78 36.8 39.66 36.46C39.54 36.12 39.72 35.74 40.06 35.62C40.4 35.5 40.78 35.68 40.9 36.02C41.02 36.37 40.84 36.74 40.5 36.87" fill="#F8991D"/>
<path d="M65.28 20.04C64.16 20.43 62.93 19.85 62.54 18.73C62.14 17.61 62.73 16.38 63.85 15.99C64.97 15.59 66.2 16.18 66.59 17.3C66.98 18.42 66.4 19.65 65.28 20.04Z" fill="#F8991D"/>
<path d="M49.1 13.59C48.06 13.96 46.93 13.42 46.57 12.38C46.2 11.35 46.74 10.21 47.78 9.84999C48.81 9.47999 49.95 10.02 50.31 11.06C50.68 12.09 50.14 13.23 49.1 13.59Z" fill="#F8991D"/>
<path d="M44.52 15.95C43.57 16.29 42.53 15.79 42.19 14.84C41.86 13.89 42.35 12.85 43.3 12.52C44.25 12.19 45.29 12.68 45.62 13.63C45.96 14.58 45.46 15.62 44.51 15.95" fill="#F8991D"/>
<path d="M40.56 18.74C39.7 19.04 38.75 18.59 38.45 17.73C38.15 16.87 38.6 15.92 39.46 15.62C40.32 15.32 41.27 15.76 41.57 16.63C41.88 17.49 41.43 18.43 40.57 18.74" fill="#F8991D"/>
<path d="M37.71 22.18C36.94 22.46 36.08 22.05 35.81 21.28C35.54 20.5 35.94 19.66 36.72 19.38C37.49 19.11 38.34 19.51 38.62 20.29C38.89 21.06 38.49 21.92 37.71 22.19" fill="#F8991D"/>
<path d="M35.64 25.76C34.95 26 34.2 25.64 33.95 24.96C33.71 24.27 34.07 23.52 34.76 23.27C35.45 23.03 36.2 23.39 36.45 24.07C36.7 24.76 36.34 25.51 35.64 25.76Z" fill="#F8991D"/>
<path d="M40.05 25.09C39.36 25.34 38.61 24.98 38.36 24.29C38.12 23.6 38.48 22.85 39.17 22.6C39.86 22.36 40.61 22.72 40.86 23.41C41.1 24.1 40.74 24.85 40.06 25.1" fill="#F8991D"/>
<path d="M34.41 29.26C33.81 29.47 33.14 29.16 32.93 28.56C32.72 27.96 33.03 27.29 33.64 27.08C34.24 26.87 34.9 27.18 35.12 27.79C35.33 28.39 35.02 29.05 34.42 29.27" fill="#F8991D"/>
<path d="M38.25 28.37C37.65 28.58 36.98 28.27 36.77 27.67C36.56 27.07 36.87 26.4 37.48 26.19C38.08 25.98 38.74 26.29 38.96 26.9C39.17 27.5 38.86 28.16 38.26 28.38" fill="#F8991D"/>
<path d="M33.63 32.33C33.11 32.51 32.55 32.24 32.36 31.73C32.18 31.21 32.45 30.65 32.96 30.46C33.48 30.28 34.04 30.55 34.23 31.06C34.41 31.58 34.14 32.14 33.63 32.33Z" fill="#F8991D"/>
<path d="M36.97 31.27C36.45 31.45 35.89 31.18 35.7 30.67C35.52 30.15 35.79 29.59 36.31 29.4C36.83 29.22 37.39 29.49 37.58 30C37.76 30.52 37.49 31.08 36.98 31.27" fill="#F8991D"/>
<path d="M32.81 35.13C32.38 35.28 31.91 35.06 31.75 34.63C31.6 34.2 31.82 33.73 32.25 33.57C32.68 33.42 33.15 33.64 33.31 34.07C33.46 34.5 33.24 34.97 32.81 35.12" fill="#F8991D"/>
<path d="M35.95 33.87C35.52 34.02 35.05 33.8 34.89 33.37C34.74 32.94 34.96 32.47 35.39 32.32C35.82 32.17 36.29 32.39 36.44 32.82C36.59 33.25 36.37 33.72 35.94 33.88" fill="#F8991D"/>
<path d="M32.25 37.5C31.91 37.62 31.53 37.44 31.4 37.1C31.28 36.75 31.46 36.38 31.8 36.25C32.15 36.13 32.52 36.31 32.64 36.65C32.76 36.99 32.58 37.37 32.24 37.49" fill="#F8991D"/>
<path d="M35.29 36.31C34.95 36.43 34.57 36.25 34.45 35.91C34.33 35.56 34.51 35.19 34.85 35.06C35.2 34.94 35.57 35.12 35.7 35.46C35.82 35.8 35.64 36.18 35.3 36.3" fill="#F8991D"/>
<path d="M78.62 18.93C77.33 19.39 75.91 18.71 75.45 17.42C74.99 16.13 75.67 14.71 76.96 14.25C78.25 13.79 79.67 14.47 80.13 15.76C80.59 17.05 79.91 18.47 78.62 18.92" fill="#F8991D"/>
<path d="M73.03 12.85C71.74 13.31 70.32 12.63 69.86 11.34C69.4 10.05 70.08 8.62999 71.37 8.16999C72.66 7.70999 74.08 8.38999 74.54 9.67999C75 10.97 74.32 12.39 73.03 12.85Z" fill="#F8991D"/>
<path d="M67.45 6.77001C66.16 7.23001 64.74 6.55001 64.28 5.26001C63.82 3.97001 64.5 2.55001 65.79 2.09001C67.08 1.63001 68.5 2.31001 68.96 3.60001C69.42 4.89001 68.74 6.31001 67.45 6.77001Z" fill="#F8991D"/>
<path d="M31.74 39.51C31.48 39.6 31.2 39.47 31.11 39.21C31.02 38.95 31.15 38.67 31.41 38.58C31.67 38.49 31.95 38.62 32.04 38.88C32.13 39.14 32 39.42 31.74 39.51Z" fill="#F8991D"/>
<path d="M34.9 38.58C34.64 38.67 34.36 38.54 34.27 38.28C34.18 38.02 34.31 37.74 34.57 37.65C34.83 37.56 35.11 37.69 35.2 37.95C35.29 38.21 35.16 38.49 34.9 38.58Z" fill="#F8991D"/>
<path d="M77.09 74.73C76.24 73.66 76.41 72.1 77.48 71.24C78.55 70.38 80.11 70.56 80.97 71.63C81.82 72.7 81.65 74.26 80.58 75.12C79.51 75.97 77.95 75.8 77.09 74.73Z" fill="#F8991D"/>
<path d="M84.21 47.32C83.41 46.32 83.58 44.87 84.58 44.07C85.58 43.27 87.04 43.43 87.83 44.43C88.63 45.43 88.46 46.89 87.47 47.68C86.47 48.48 85.02 48.32 84.22 47.32" fill="#F8991D"/>
<path d="M81.28 53.99C80.48 52.99 80.65 51.53 81.64 50.74C82.64 49.94 84.1 50.1 84.89 51.11C85.69 52.11 85.53 53.56 84.53 54.36C83.53 55.16 82.07 55 81.27 54" fill="#F8991D"/>
<path d="M78.35 60.66C77.55 59.66 77.71 58.2 78.71 57.41C79.71 56.61 81.17 56.77 81.97 57.77C82.77 58.77 82.6 60.22 81.6 61.02C80.6 61.82 79.14 61.66 78.35 60.66Z" fill="#F8991D"/>
<path d="M74.78 67.41C74.04 66.48 74.19 65.13 75.12 64.39C76.05 63.65 77.4 63.8 78.14 64.73C78.88 65.66 78.73 67.01 77.8 67.75C76.87 68.49 75.52 68.34 74.78 67.41Z" fill="#F8991D"/>
<path d="M72.61 61.35C71.98 60.57 72.11 59.42 72.9 58.8C73.69 58.17 74.83 58.3 75.46 59.08C76.09 59.87 75.96 61.01 75.17 61.64C74.39 62.27 73.24 62.14 72.61 61.35Z" fill="#F8991D"/>
<path d="M70.31 55.77C69.8 55.13 69.9 54.19 70.55 53.68C71.19 53.17 72.13 53.27 72.64 53.91C73.15 54.55 73.05 55.49 72.4 56C71.76 56.51 70.82 56.41 70.31 55.76" fill="#F8991D"/>
<path d="M68.21 51.65C67.81 51.15 67.89 50.42 68.39 50.02C68.89 49.62 69.62 49.7 70.02 50.2C70.42 50.7 70.34 51.43 69.84 51.83C69.34 52.23 68.61 52.15 68.21 51.65Z" fill="#F8991D"/>
<path d="M66.14 47.9C65.86 47.54 65.91 47.02 66.27 46.74C66.63 46.46 67.15 46.51 67.43 46.87C67.72 47.23 67.66 47.75 67.3 48.03C66.94 48.32 66.42 48.26 66.14 47.9Z" fill="#F8991D"/>
<path d="M80.1 42.18C79.36 41.25 79.51 39.9 80.44 39.16C81.37 38.42 82.72 38.57 83.46 39.5C84.2 40.43 84.05 41.78 83.12 42.52C82.19 43.26 80.84 43.11 80.1 42.18Z" fill="#F8991D"/>
<path d="M78.11 48.82C77.37 47.89 77.52 46.54 78.44 45.8C79.37 45.06 80.72 45.21 81.46 46.14C82.2 47.07 82.05 48.42 81.12 49.16C80.19 49.9 78.84 49.75 78.1 48.82" fill="#F8991D"/>
<path d="M75.01 44.53C74.33 43.67 74.46 42.43 75.32 41.74C76.18 41.05 77.42 41.2 78.11 42.05C78.79 42.91 78.66 44.16 77.8 44.84C76.94 45.53 75.7 45.38 75.01 44.53Z" fill="#F8991D"/>
<path d="M72.74 50.75C72.05 49.89 72.19 48.65 73.05 47.96C73.91 47.27 75.15 47.41 75.84 48.27C76.52 49.13 76.39 50.37 75.53 51.06C74.67 51.74 73.43 51.6 72.74 50.75Z" fill="#F8991D"/>
<path d="M71.74 41.18C71.11 40.39 71.24 39.25 72.02 38.62C72.8 37.99 73.95 38.12 74.58 38.91C75.21 39.69 75.08 40.84 74.29 41.47C73.5 42.1 72.36 41.97 71.74 41.18Z" fill="#F8991D"/>
<path d="M70.08 46.67C69.45 45.88 69.58 44.74 70.37 44.11C71.15 43.48 72.3 43.61 72.93 44.4C73.56 45.19 73.43 46.33 72.64 46.96C71.85 47.59 70.71 47.46 70.08 46.68" fill="#F8991D"/>
<path d="M68.19 38.39C67.62 37.68 67.74 36.64 68.45 36.07C69.17 35.5 70.21 35.61 70.77 36.33C71.34 37.04 71.22 38.08 70.51 38.65C69.79 39.22 68.75 39.1 68.18 38.39" fill="#F8991D"/>
<path d="M67.38 43.43C66.81 42.72 66.92 41.68 67.64 41.11C68.35 40.54 69.39 40.66 69.96 41.37C70.53 42.09 70.42 43.12 69.7 43.69C68.99 44.26 67.95 44.14 67.38 43.43Z" fill="#F8991D"/>
<path d="M64.31 36.83C63.8 36.19 63.9 35.25 64.54 34.74C65.18 34.23 66.12 34.33 66.63 34.98C67.14 35.62 67.04 36.56 66.39 37.07C65.75 37.58 64.81 37.48 64.3 36.84" fill="#F8991D"/>
<path d="M64.38 41.29C63.87 40.65 63.97 39.71 64.61 39.2C65.25 38.69 66.19 38.79 66.7 39.43C67.21 40.07 67.11 41.01 66.46 41.52C65.82 42.04 64.88 41.93 64.37 41.29" fill="#F8991D"/>
<path d="M60.68 36.13C60.22 35.56 60.32 34.73 60.89 34.27C61.46 33.81 62.29 33.91 62.75 34.48C63.21 35.05 63.11 35.88 62.54 36.34C61.97 36.8 61.14 36.7 60.68 36.13Z" fill="#F8991D"/>
<path d="M61.38 39.87C60.92 39.3 61.01 38.47 61.59 38.01C62.16 37.55 62.99 37.65 63.45 38.22C63.91 38.79 63.82 39.62 63.24 40.08C62.67 40.54 61.84 40.44 61.38 39.87Z" fill="#F8991D"/>
<path d="M57.52 35.53C57.12 35.03 57.2 34.3 57.7 33.9C58.2 33.5 58.93 33.58 59.33 34.08C59.73 34.58 59.65 35.31 59.15 35.71C58.65 36.11 57.92 36.03 57.52 35.53Z" fill="#F8991D"/>
<path d="M58.49 38.78C58.09 38.28 58.17 37.55 58.67 37.15C59.17 36.75 59.9 36.83 60.3 37.33C60.7 37.83 60.62 38.56 60.12 38.96C59.62 39.36 58.89 39.28 58.49 38.78Z" fill="#F8991D"/>
<path d="M54.73 35.17C54.39 34.74 54.46 34.12 54.89 33.77C55.32 33.43 55.94 33.5 56.28 33.93C56.62 34.36 56.55 34.98 56.12 35.32C55.69 35.66 55.07 35.59 54.72 35.16" fill="#F8991D"/>
<path d="M55.92 38.04C55.58 37.61 55.65 36.99 56.08 36.65C56.51 36.31 57.13 36.38 57.47 36.8C57.81 37.23 57.74 37.85 57.31 38.19C56.88 38.53 56.26 38.46 55.92 38.03" fill="#F8991D"/>
<path d="M52.24 35.01C51.96 34.65 52.01 34.13 52.37 33.85C52.73 33.56 53.25 33.62 53.53 33.98C53.81 34.34 53.76 34.86 53.4 35.14C53.04 35.42 52.52 35.37 52.24 35.01Z" fill="#F8991D"/>
<path d="M53.62 37.53C53.33 37.17 53.39 36.65 53.75 36.37C54.11 36.09 54.63 36.14 54.91 36.5C55.19 36.86 55.14 37.38 54.78 37.66C54.42 37.94 53.9 37.89 53.62 37.53Z" fill="#F8991D"/>
<path d="M50.09 34.92C49.86 34.63 49.91 34.22 50.19 33.99C50.47 33.76 50.89 33.81 51.12 34.09C51.35 34.38 51.3 34.79 51.02 35.02C50.74 35.25 50.32 35.2 50.09 34.92Z" fill="#F8991D"/>
<path d="M51.57 37.32C51.34 37.03 51.39 36.62 51.67 36.39C51.96 36.16 52.37 36.21 52.6 36.49C52.83 36.78 52.78 37.19 52.5 37.42C52.21 37.65 51.8 37.6 51.57 37.32Z" fill="#F8991D"/>
<path d="M75.58 55.23C74.84 54.3 74.99 52.95 75.92 52.21C76.85 51.47 78.2 51.62 78.94 52.55C79.68 53.48 79.53 54.83 78.6 55.57C77.67 56.31 76.32 56.16 75.58 55.23Z" fill="#F8991D"/>
<path d="M76.38 37.83C75.7 36.97 75.84 35.72 76.69 35.04C77.55 34.35 78.79 34.49 79.48 35.35C80.16 36.21 80.02 37.46 79.17 38.14C78.31 38.82 77.07 38.69 76.38 37.83Z" fill="#F8991D"/>
<path d="M72.65 34.27C72.02 33.48 72.15 32.34 72.93 31.71C73.71 31.08 74.86 31.21 75.49 32C76.12 32.79 75.99 33.93 75.2 34.56C74.41 35.18 73.27 35.06 72.65 34.27Z" fill="#F8991D"/>
<path d="M68.72 31.45C68.15 30.74 68.27 29.7 68.98 29.13C69.7 28.56 70.73 28.68 71.31 29.39C71.88 30.1 71.76 31.14 71.05 31.71C70.34 32.28 69.3 32.16 68.73 31.45" fill="#F8991D"/>
<path d="M64.53 29.88C64.02 29.23 64.12 28.3 64.77 27.79C65.41 27.28 66.35 27.38 66.86 28.03C67.37 28.67 67.27 29.61 66.63 30.12C65.99 30.63 65.05 30.53 64.54 29.89" fill="#F8991D"/>
<path d="M60.47 29.1C60.01 28.53 60.1 27.7 60.68 27.24C61.25 26.78 62.08 26.88 62.54 27.45C63 28.02 62.9 28.85 62.33 29.31C61.76 29.77 60.93 29.67 60.47 29.1Z" fill="#F8991D"/>
<path d="M62.55 33.04C62.09 32.47 62.19 31.64 62.76 31.18C63.33 30.72 64.16 30.82 64.62 31.39C65.08 31.96 64.98 32.79 64.41 33.25C63.84 33.71 63.01 33.61 62.55 33.04Z" fill="#F8991D"/>
<path d="M56.76 29.08C56.36 28.58 56.44 27.85 56.94 27.45C57.44 27.05 58.17 27.13 58.57 27.63C58.97 28.13 58.89 28.86 58.39 29.26C57.89 29.66 57.16 29.58 56.76 29.08Z" fill="#F8991D"/>
<path d="M58.87 32.42C58.47 31.92 58.55 31.19 59.05 30.79C59.55 30.39 60.28 30.47 60.68 30.97C61.08 31.47 61 32.2 60.5 32.6C60 33 59.27 32.92 58.87 32.42Z" fill="#F8991D"/>
<path d="M53.61 29.35C53.27 28.92 53.34 28.3 53.77 27.96C54.2 27.62 54.82 27.69 55.16 28.12C55.5 28.55 55.43 29.17 55 29.51C54.57 29.85 53.95 29.78 53.61 29.35Z" fill="#F8991D"/>
<path d="M55.7 32.16C55.36 31.73 55.43 31.11 55.85 30.77C56.28 30.43 56.9 30.5 57.25 30.93C57.59 31.36 57.52 31.98 57.1 32.32C56.67 32.66 56.05 32.59 55.7 32.16Z" fill="#F8991D"/>
<path d="M50.69 29.49C50.4 29.13 50.46 28.61 50.82 28.33C51.18 28.05 51.69 28.1 51.98 28.46C52.27 28.82 52.21 29.34 51.85 29.62C51.49 29.91 50.97 29.85 50.69 29.49Z" fill="#F8991D"/>
<path d="M52.92 32.05C52.63 31.69 52.69 31.17 53.05 30.89C53.41 30.61 53.93 30.66 54.21 31.02C54.49 31.38 54.44 31.9 54.08 32.18C53.72 32.47 53.21 32.41 52.92 32.05Z" fill="#F8991D"/>
<path d="M48.27 29.74C48.04 29.45 48.09 29.04 48.37 28.81C48.65 28.58 49.07 28.63 49.3 28.91C49.53 29.2 49.48 29.61 49.2 29.84C48.92 30.07 48.5 30.02 48.27 29.74Z" fill="#F8991D"/>
<path d="M50.39 32.23C50.16 31.94 50.21 31.53 50.49 31.3C50.78 31.07 51.19 31.12 51.42 31.4C51.65 31.69 51.6 32.1 51.32 32.33C51.04 32.56 50.62 32.51 50.39 32.23Z" fill="#F8991D"/>
<path d="M81 67.46C80.15 66.39 80.32 64.83 81.39 63.98C82.46 63.12 84.02 63.3 84.88 64.37C85.73 65.44 85.56 67 84.49 67.85C83.42 68.71 81.86 68.53 81 67.46Z" fill="#F8991D"/>
<path d="M84.92 60.2C84.06 59.13 84.24 57.57 85.31 56.71C86.38 55.85 87.94 56.03 88.8 57.1C89.66 58.17 89.48 59.73 88.41 60.59C87.34 61.44 85.78 61.27 84.92 60.2Z" fill="#F8991D"/>
<path d="M88.83 52.93C87.97 51.86 88.15 50.3 89.22 49.44C90.29 48.59 91.85 48.76 92.71 49.83C93.56 50.9 93.39 52.46 92.32 53.32C91.25 54.18 89.69 54 88.83 52.93Z" fill="#F8991D"/>
<path d="M46.2 29.91C46.03 29.7 46.06 29.39 46.28 29.21C46.49 29.04 46.81 29.08 46.98 29.29C47.15 29.5 47.12 29.82 46.9 29.99C46.69 30.16 46.37 30.13 46.2 29.91Z" fill="#F8991D"/>
<path d="M48.12 32.6C47.95 32.39 47.98 32.07 48.2 31.9C48.41 31.73 48.73 31.77 48.9 31.98C49.07 32.19 49.04 32.51 48.82 32.68C48.61 32.85 48.29 32.82 48.12 32.6Z" fill="#F8991D"/>
<path d="M28.24 85.15C28.98 84 30.51 83.66 31.67 84.4C32.83 85.14 33.16 86.67 32.42 87.83C31.68 88.98 30.15 89.32 28.99 88.58C27.84 87.84 27.5 86.31 28.24 85.15Z" fill="#F8991D"/>
<path d="M56.49 83.09C57.18 82.01 58.61 81.7 59.69 82.39C60.77 83.08 61.08 84.51 60.39 85.59C59.7 86.67 58.27 86.98 57.19 86.29C56.11 85.6 55.8 84.17 56.49 83.09Z" fill="#F8991D"/>
<path d="M49.23 82.46C49.92 81.38 51.35 81.07 52.43 81.76C53.51 82.45 53.82 83.88 53.13 84.96C52.44 86.04 51.01 86.35 49.93 85.66C48.85 84.97 48.54 83.54 49.23 82.46Z" fill="#F8991D"/>
<path d="M41.97 81.82C42.66 80.75 44.09 80.43 45.17 81.12C46.25 81.81 46.56 83.24 45.87 84.32C45.18 85.4 43.75 85.71 42.67 85.02C41.6 84.33 41.28 82.9 41.97 81.82Z" fill="#F8991D"/>
<path d="M34.43 80.61C35.07 79.61 36.4 79.32 37.4 79.96C38.4 80.6 38.69 81.93 38.05 82.93C37.41 83.93 36.08 84.22 35.08 83.58C34.08 82.94 33.79 81.61 34.43 80.61Z" fill="#F8991D"/>
<path d="M39.47 76.61C40.01 75.76 41.14 75.52 41.98 76.06C42.83 76.6 43.07 77.73 42.53 78.57C41.99 79.42 40.86 79.67 40.02 79.12C39.17 78.58 38.93 77.45 39.47 76.61Z" fill="#F8991D"/>
<path d="M44.02 72.64C44.46 71.95 45.38 71.74 46.08 72.19C46.77 72.63 46.97 73.55 46.53 74.24C46.09 74.93 45.17 75.13 44.47 74.69C43.78 74.24 43.58 73.33 44.02 72.63" fill="#F8991D"/>
<path d="M47.25 69.33C47.6 68.79 48.31 68.64 48.85 68.98C49.39 69.33 49.55 70.04 49.2 70.58C48.86 71.12 48.14 71.27 47.6 70.93C47.06 70.58 46.9 69.87 47.25 69.33Z" fill="#F8991D"/>
<path d="M50.13 66.16C50.38 65.77 50.89 65.66 51.27 65.91C51.65 66.16 51.76 66.67 51.52 67.05C51.28 67.43 50.76 67.55 50.38 67.3C50 67.05 49.88 66.54 50.13 66.16Z" fill="#F8991D"/>
<path d="M60.04 77.55C60.68 76.55 62.01 76.26 63.01 76.9C64.01 77.54 64.3 78.87 63.66 79.87C63.02 80.87 61.69 81.16 60.69 80.52C59.69 79.88 59.4 78.55 60.04 77.55Z" fill="#F8991D"/>
<path d="M53.1 77.8C53.74 76.8 55.07 76.51 56.07 77.15C57.07 77.79 57.36 79.12 56.72 80.12C56.08 81.12 54.75 81.41 53.75 80.77C52.75 80.13 52.46 78.8 53.1 77.8Z" fill="#F8991D"/>
<path d="M56.17 73.49C56.76 72.57 57.99 72.3 58.91 72.89C59.83 73.48 60.1 74.71 59.51 75.63C58.92 76.55 57.69 76.82 56.77 76.23C55.85 75.64 55.58 74.41 56.17 73.49Z" fill="#F8991D"/>
<path d="M49.56 73.33C50.15 72.41 51.38 72.14 52.3 72.73C53.22 73.32 53.49 74.55 52.9 75.47C52.31 76.39 51.08 76.66 50.16 76.07C49.24 75.48 48.97 74.25 49.56 73.33Z" fill="#F8991D"/>
<path d="M58.29 69.31C58.83 68.46 59.96 68.21 60.8 68.76C61.65 69.3 61.89 70.43 61.35 71.27C60.81 72.12 59.68 72.36 58.84 71.82C57.99 71.28 57.75 70.15 58.29 69.31Z" fill="#F8991D"/>
<path d="M52.57 69.5C53.11 68.65 54.24 68.41 55.08 68.95C55.93 69.49 56.17 70.62 55.63 71.46C55.09 72.31 53.96 72.55 53.12 72.01C52.27 71.47 52.03 70.34 52.57 69.5Z" fill="#F8991D"/>
<path d="M59.8 65.06C60.29 64.29 61.31 64.07 62.08 64.56C62.85 65.05 63.07 66.08 62.58 66.84C62.09 67.61 61.07 67.83 60.3 67.34C59.53 66.85 59.31 65.83 59.8 65.05" fill="#F8991D"/>
<path d="M54.76 65.9C55.25 65.13 56.28 64.91 57.05 65.4C57.82 65.89 58.04 66.92 57.55 67.68C57.06 68.45 56.03 68.67 55.26 68.18C54.49 67.69 54.27 66.66 54.76 65.9Z" fill="#F8991D"/>
<path d="M60.03 60.87C60.47 60.18 61.39 59.98 62.08 60.42C62.77 60.86 62.97 61.78 62.53 62.48C62.09 63.17 61.17 63.38 60.48 62.93C59.79 62.48 59.59 61.57 60.03 60.87Z" fill="#F8991D"/>
<path d="M55.83 62.37C56.27 61.68 57.19 61.48 57.89 61.92C58.58 62.36 58.78 63.28 58.34 63.97C57.9 64.66 56.98 64.87 56.28 64.42C55.59 63.97 55.39 63.05 55.83 62.36" fill="#F8991D"/>
<path d="M59.53 57.22C59.92 56.61 60.74 56.43 61.36 56.82C61.97 57.21 62.15 58.03 61.76 58.65C61.36 59.26 60.55 59.44 59.93 59.05C59.32 58.66 59.14 57.84 59.53 57.22Z" fill="#F8991D"/>
<path d="M56.21 59.08C56.6 58.47 57.42 58.29 58.04 58.68C58.66 59.07 58.83 59.89 58.44 60.51C58.05 61.13 57.23 61.31 56.61 60.91C56 60.52 55.82 59.7 56.21 59.08Z" fill="#F8991D"/>
<path d="M59.08 54.03C59.42 53.49 60.14 53.34 60.68 53.68C61.22 54.03 61.38 54.74 61.03 55.28C60.69 55.82 59.97 55.98 59.43 55.63C58.89 55.28 58.73 54.57 59.08 54.03Z" fill="#F8991D"/>
<path d="M56.31 55.99C56.65 55.45 57.37 55.3 57.91 55.64C58.45 55.99 58.6 56.7 58.26 57.24C57.91 57.78 57.2 57.93 56.66 57.59C56.12 57.24 55.97 56.53 56.31 55.99Z" fill="#F8991D"/>
<path d="M58.52 51.27C58.82 50.81 59.43 50.67 59.89 50.97C60.35 51.27 60.49 51.88 60.19 52.34C59.89 52.8 59.28 52.94 58.82 52.64C58.36 52.34 58.22 51.73 58.52 51.27Z" fill="#F8991D"/>
<path d="M56.19 53.31C56.48 52.85 57.1 52.71 57.56 53.01C58.02 53.31 58.16 53.92 57.86 54.38C57.56 54.84 56.95 54.97 56.49 54.68C56.03 54.38 55.9 53.77 56.19 53.31Z" fill="#F8991D"/>
<path d="M57.88 48.86C58.13 48.47 58.64 48.36 59.02 48.61C59.4 48.86 59.52 49.37 59.27 49.75C59.02 50.13 58.51 50.24 58.13 50C57.74 49.75 57.63 49.24 57.88 48.86Z" fill="#F8991D"/>
<path d="M55.93 50.98C56.18 50.6 56.69 50.49 57.07 50.73C57.45 50.98 57.56 51.49 57.32 51.87C57.07 52.25 56.56 52.37 56.18 52.12C55.8 51.87 55.68 51.36 55.93 50.98Z" fill="#F8991D"/>
<path d="M57.27 46.79C57.47 46.48 57.87 46.39 58.18 46.59C58.49 46.79 58.58 47.2 58.38 47.5C58.18 47.81 57.78 47.9 57.47 47.7C57.16 47.51 57.07 47.1 57.27 46.79Z" fill="#F8991D"/>
<path d="M55.48 48.97C55.68 48.66 56.08 48.57 56.39 48.77C56.7 48.97 56.79 49.38 56.59 49.68C56.39 49.99 55.99 50.08 55.68 49.88C55.37 49.68 55.28 49.27 55.48 48.97Z" fill="#F8991D"/>
<path d="M46.23 77.46C46.87 76.46 48.2 76.17 49.2 76.81C50.2 77.45 50.49 78.78 49.85 79.78C49.21 80.78 47.88 81.07 46.88 80.43C45.88 79.79 45.59 78.46 46.23 77.46Z" fill="#F8991D"/>
<path d="M62.96 72.62C63.55 71.7 64.78 71.43 65.7 72.02C66.62 72.61 66.89 73.84 66.3 74.76C65.71 75.68 64.48 75.95 63.56 75.36C62.64 74.77 62.37 73.54 62.96 72.62Z" fill="#F8991D"/>
<path d="M65.13 67.95C65.67 67.1 66.8 66.86 67.64 67.4C68.49 67.94 68.73 69.07 68.19 69.91C67.65 70.76 66.52 71 65.68 70.46C64.83 69.92 64.59 68.79 65.13 67.95Z" fill="#F8991D"/>
<path d="M66.55 63.33C67.04 62.56 68.06 62.34 68.84 62.83C69.61 63.32 69.83 64.35 69.34 65.12C68.85 65.89 67.83 66.11 67.06 65.62C66.29 65.13 66.07 64.1 66.56 63.34" fill="#F8991D"/>
<path d="M66.68 58.85C67.12 58.16 68.04 57.95 68.73 58.4C69.42 58.84 69.62 59.76 69.18 60.46C68.74 61.15 67.82 61.35 67.12 60.91C66.43 60.46 66.23 59.55 66.67 58.85" fill="#F8991D"/>
<path d="M66.12 54.76C66.52 54.14 67.33 53.96 67.95 54.36C68.57 54.75 68.74 55.57 68.35 56.19C67.96 56.81 67.14 56.99 66.52 56.59C65.9 56.2 65.72 55.38 66.12 54.76Z" fill="#F8991D"/>
<path d="M63.05 57.99C63.45 57.37 64.26 57.19 64.88 57.59C65.5 57.98 65.67 58.8 65.28 59.42C64.89 60.04 64.07 60.21 63.45 59.82C62.84 59.43 62.66 58.61 63.05 57.99Z" fill="#F8991D"/>
<path d="M64.95 51.24C65.3 50.7 66.01 50.54 66.55 50.89C67.09 51.24 67.24 51.95 66.9 52.49C66.56 53.03 65.84 53.19 65.3 52.84C64.76 52.5 64.61 51.78 64.95 51.24Z" fill="#F8991D"/>
<path d="M62.46 54.3C62.81 53.76 63.52 53.6 64.06 53.95C64.6 54.3 64.75 55.01 64.41 55.55C64.07 56.09 63.35 56.25 62.81 55.9C62.27 55.55 62.12 54.84 62.46 54.3Z" fill="#F8991D"/>
<path d="M63.67 48.34C63.97 47.88 64.58 47.74 65.04 48.04C65.5 48.34 65.64 48.95 65.34 49.41C65.04 49.87 64.43 50 63.97 49.71C63.51 49.41 63.37 48.8 63.67 48.34Z" fill="#F8991D"/>
<path d="M61.69 51.22C61.99 50.76 62.6 50.62 63.06 50.92C63.52 51.22 63.66 51.83 63.36 52.29C63.06 52.75 62.45 52.88 61.99 52.59C61.53 52.29 61.39 51.68 61.69 51.22Z" fill="#F8991D"/>
<path d="M62.61 45.62C62.86 45.23 63.37 45.12 63.75 45.37C64.13 45.61 64.24 46.13 64 46.51C63.75 46.89 63.24 47.01 62.86 46.76C62.48 46.51 62.36 46 62.61 45.62Z" fill="#F8991D"/>
<path d="M60.9 48.55C61.15 48.17 61.66 48.05 62.04 48.3C62.43 48.55 62.54 49.06 62.29 49.44C62.04 49.82 61.53 49.94 61.15 49.69C60.76 49.45 60.65 48.93 60.9 48.55Z" fill="#F8991D"/>
<path d="M61.59 43.41C61.79 43.1 62.2 43.01 62.5 43.21C62.81 43.41 62.9 43.81 62.7 44.12C62.5 44.43 62.09 44.52 61.79 44.32C61.48 44.12 61.39 43.72 61.59 43.41Z" fill="#F8991D"/>
<path d="M59.92 46.21C60.12 45.9 60.53 45.81 60.83 46.01C61.14 46.21 61.23 46.62 61.03 46.92C60.83 47.23 60.42 47.32 60.12 47.12C59.81 46.92 59.72 46.52 59.92 46.21Z" fill="#F8991D"/>
<path d="M36.38 86.52C37.12 85.37 38.65 85.03 39.81 85.77C40.96 86.51 41.3 88.04 40.56 89.2C39.82 90.35 38.29 90.69 37.13 89.95C35.98 89.21 35.64 87.68 36.38 86.52Z" fill="#F8991D"/>
<path d="M44.52 87.9C45.26 86.75 46.79 86.41 47.95 87.15C49.1 87.89 49.44 89.42 48.7 90.58C47.96 91.73 46.43 92.07 45.27 91.33C44.12 90.59 43.78 89.05 44.52 87.9Z" fill="#F8991D"/>
<path d="M52.66 89.27C53.4 88.12 54.93 87.78 56.09 88.52C57.24 89.26 57.58 90.8 56.84 91.95C56.1 93.1 54.57 93.44 53.41 92.7C52.26 91.96 51.92 90.43 52.66 89.27Z" fill="#F8991D"/>
<path d="M60.77 41.5C60.92 41.27 61.22 41.2 61.45 41.35C61.68 41.5 61.75 41.81 61.6 42.04C61.45 42.27 61.15 42.34 60.92 42.19C60.69 42.04 60.62 41.73 60.77 41.5Z" fill="#F8991D"/>
<path d="M58.84 44.18C58.99 43.95 59.29 43.88 59.53 44.03C59.76 44.18 59.83 44.49 59.68 44.72C59.53 44.95 59.23 45.02 58.99 44.87C58.76 44.72 58.69 44.41 58.84 44.18Z" fill="#F8991D"/>
<path d="M3.2 39.41C4.51 39.81 5.25 41.19 4.86 42.5C4.47 43.81 3.08 44.55 1.77 44.16C0.459999 43.76 -0.290001 42.38 0.109999 41.07C0.509999 39.76 1.89 39.01 3.2 39.41Z" fill="#F8991D"/>
<path d="M12.89 66.02C14.11 66.39 14.81 67.68 14.44 68.9C14.07 70.12 12.78 70.82 11.55 70.45C10.33 70.08 9.63 68.79 10 67.56C10.37 66.33 11.66 65.64 12.89 66.01" fill="#F8991D"/>
<path d="M11.52 58.87C12.75 59.24 13.44 60.53 13.07 61.76C12.7 62.98 11.41 63.68 10.19 63.31C8.96 62.94 8.27 61.65 8.64 60.43C9.01 59.2 10.3 58.51 11.53 58.88" fill="#F8991D"/>
<path d="M10.15 51.71C11.37 52.08 12.07 53.37 11.7 54.6C11.33 55.83 10.04 56.52 8.81 56.15C7.59 55.78 6.89 54.49 7.26 53.26C7.63 52.04 8.92 51.34 10.15 51.71Z" fill="#F8991D"/>
<path d="M9.26 44.12C10.4 44.46 11.04 45.66 10.7 46.8C10.36 47.94 9.16 48.58 8.02 48.24C6.88 47.9 6.24 46.7 6.58 45.56C6.93 44.42 8.12 43.78 9.26 44.12Z" fill="#F8991D"/>
<path d="M14.48 47.88C15.44 48.17 15.98 49.18 15.69 50.15C15.4 51.11 14.39 51.65 13.42 51.36C12.46 51.07 11.91 50.06 12.21 49.1C12.5 48.14 13.51 47.59 14.48 47.88Z" fill="#F8991D"/>
<path d="M19.54 51.17C20.33 51.41 20.77 52.24 20.53 53.02C20.29 53.81 19.46 54.25 18.68 54.01C17.89 53.77 17.45 52.94 17.68 52.16C17.92 51.37 18.75 50.93 19.54 51.17Z" fill="#F8991D"/>
<path d="M23.61 53.37C24.22 53.56 24.57 54.2 24.38 54.81C24.19 55.42 23.55 55.77 22.94 55.58C22.33 55.39 21.98 54.75 22.17 54.14C22.35 53.53 23 53.18 23.61 53.37Z" fill="#F8991D"/>
<path d="M27.44 55.28C27.88 55.41 28.12 55.88 27.99 56.31C27.86 56.75 27.4 56.99 26.96 56.86C26.52 56.73 26.28 56.27 26.41 55.83C26.54 55.39 27 55.14 27.44 55.28Z" fill="#F8991D"/>
<path d="M19.19 67.92C20.33 68.26 20.97 69.46 20.63 70.6C20.29 71.74 19.09 72.38 17.95 72.04C16.81 71.7 16.17 70.5 16.51 69.36C16.86 68.22 18.05 67.58 19.19 67.93" fill="#F8991D"/>
<path d="M17.06 61.32C18.2 61.66 18.84 62.86 18.5 64C18.15 65.14 16.96 65.78 15.82 65.44C14.68 65.1 14.04 63.9 14.38 62.76C14.72 61.62 15.92 60.98 17.06 61.32Z" fill="#F8991D"/>
<path d="M22.04 63.09C23.09 63.41 23.68 64.51 23.37 65.57C23.05 66.62 21.95 67.21 20.9 66.89C19.85 66.57 19.26 65.47 19.57 64.42C19.89 63.37 20.99 62.78 22.04 63.09Z" fill="#F8991D"/>
<path d="M20.4 56.69C21.45 57.01 22.04 58.11 21.72 59.16C21.4 60.21 20.3 60.8 19.25 60.49C18.2 60.17 17.61 59.07 17.92 58.02C18.24 56.97 19.34 56.38 20.39 56.69" fill="#F8991D"/>
<path d="M26.64 63.99C27.6 64.28 28.15 65.3 27.86 66.26C27.57 67.22 26.55 67.77 25.59 67.47C24.63 67.18 24.08 66.17 24.38 65.21C24.67 64.25 25.68 63.7 26.64 63.99Z" fill="#F8991D"/>
<path d="M24.89 58.54C25.85 58.83 26.4 59.85 26.1 60.81C25.81 61.77 24.79 62.32 23.83 62.03C22.87 61.74 22.33 60.73 22.62 59.76C22.91 58.8 23.93 58.25 24.89 58.55" fill="#F8991D"/>
<path d="M31.15 64.28C32.03 64.54 32.52 65.46 32.26 66.34C32 67.22 31.07 67.71 30.2 67.44C29.33 67.18 28.83 66.25 29.1 65.38C29.36 64.5 30.28 64.01 31.16 64.28" fill="#F8991D"/>
<path d="M28.96 59.67C29.83 59.93 30.33 60.86 30.07 61.73C29.81 62.61 28.88 63.1 28.01 62.83C27.14 62.56 26.64 61.64 26.91 60.77C27.17 59.89 28.1 59.4 28.97 59.67" fill="#F8991D"/>
<path d="M35.23 63.36C36.02 63.6 36.46 64.43 36.22 65.21C35.98 66 35.15 66.44 34.37 66.2C33.58 65.96 33.14 65.13 33.38 64.35C33.62 63.56 34.45 63.12 35.23 63.36Z" fill="#F8991D"/>
<path d="M32.64 59.73C33.43 59.97 33.87 60.8 33.63 61.59C33.39 62.38 32.56 62.82 31.78 62.58C30.99 62.34 30.55 61.51 30.78 60.72C31.02 59.93 31.85 59.49 32.64 59.73Z" fill="#F8991D"/>
<path d="M38.61 61.88C39.31 62.09 39.7 62.83 39.49 63.53C39.28 64.23 38.54 64.63 37.84 64.42C37.14 64.21 36.74 63.47 36.96 62.77C37.17 62.07 37.91 61.68 38.61 61.89" fill="#F8991D"/>
<path d="M35.92 59.19C36.62 59.4 37.01 60.14 36.8 60.84C36.59 61.54 35.85 61.94 35.15 61.72C34.45 61.51 34.05 60.77 34.27 60.07C34.48 59.37 35.22 58.97 35.92 59.18" fill="#F8991D"/>
<path d="M41.56 60.58C42.17 60.77 42.52 61.41 42.33 62.02C42.15 62.63 41.5 62.98 40.89 62.79C40.28 62.6 39.93 61.96 40.11 61.35C40.3 60.74 40.94 60.39 41.56 60.58Z" fill="#F8991D"/>
<path d="M38.91 58.45C39.52 58.64 39.87 59.28 39.68 59.89C39.49 60.5 38.85 60.85 38.24 60.66C37.63 60.48 37.28 59.83 37.47 59.22C37.66 58.61 38.3 58.26 38.91 58.45Z" fill="#F8991D"/>
<path d="M44.06 59.29C44.58 59.45 44.88 60 44.72 60.53C44.56 61.06 44.01 61.35 43.48 61.19C42.96 61.03 42.66 60.48 42.82 59.95C42.98 59.42 43.53 59.13 44.06 59.29Z" fill="#F8991D"/>
<path d="M41.46 57.6C41.98 57.76 42.28 58.31 42.12 58.84C41.96 59.37 41.41 59.66 40.88 59.5C40.36 59.34 40.06 58.79 40.22 58.26C40.38 57.74 40.93 57.44 41.46 57.6Z" fill="#F8991D"/>
<path d="M46.21 58.01C46.65 58.14 46.89 58.6 46.76 59.04C46.63 59.48 46.17 59.72 45.73 59.59C45.29 59.46 45.05 58.99 45.18 58.56C45.31 58.12 45.77 57.88 46.21 58.01Z" fill="#F8991D"/>
<path d="M43.63 56.71C44.07 56.84 44.31 57.3 44.18 57.74C44.05 58.18 43.59 58.42 43.15 58.29C42.71 58.16 42.46 57.7 42.6 57.26C42.73 56.82 43.19 56.57 43.63 56.71Z" fill="#F8991D"/>
<path d="M48.02 56.86C48.37 56.96 48.57 57.34 48.46 57.68C48.35 58.03 47.98 58.23 47.64 58.12C47.29 58.01 47.09 57.64 47.2 57.3C47.3 56.95 47.67 56.75 48.02 56.86Z" fill="#F8991D"/>
<path d="M45.44 55.73C45.79 55.83 45.99 56.2 45.88 56.55C45.77 56.9 45.4 57.1 45.06 56.99C44.71 56.88 44.51 56.52 44.62 56.17C44.73 55.82 45.09 55.62 45.44 55.73Z" fill="#F8991D"/>
<path d="M15.51 54.61C16.65 54.95 17.29 56.15 16.95 57.29C16.61 58.43 15.41 59.07 14.27 58.72C13.14 58.38 12.49 57.18 12.83 56.04C13.17 54.9 14.37 54.26 15.51 54.6" fill="#F8991D"/>
<path d="M24.73 69.38C25.78 69.7 26.37 70.8 26.06 71.85C25.74 72.9 24.63 73.49 23.58 73.17C22.53 72.85 21.94 71.75 22.26 70.7C22.58 69.65 23.68 69.06 24.73 69.38Z" fill="#F8991D"/>
<path d="M29.82 70.2C30.78 70.49 31.33 71.51 31.04 72.47C30.75 73.43 29.74 73.98 28.77 73.68C27.81 73.39 27.26 72.38 27.55 71.41C27.84 70.45 28.86 69.91 29.82 70.19" fill="#F8991D"/>
<path d="M34.65 70.3C35.52 70.57 36.02 71.49 35.75 72.36C35.49 73.23 34.56 73.73 33.69 73.46C32.82 73.2 32.32 72.27 32.59 71.4C32.85 70.52 33.78 70.03 34.65 70.29" fill="#F8991D"/>
<path d="M38.99 69.21C39.78 69.45 40.22 70.28 39.99 71.06C39.75 71.85 38.92 72.29 38.14 72.05C37.35 71.81 36.91 70.98 37.14 70.2C37.38 69.41 38.21 68.97 38.99 69.21Z" fill="#F8991D"/>
<path d="M42.78 67.54C43.48 67.75 43.88 68.49 43.67 69.19C43.46 69.89 42.72 70.29 42.02 70.07C41.32 69.86 40.92 69.12 41.14 68.42C41.35 67.72 42.09 67.32 42.79 67.53" fill="#F8991D"/>
<path d="M38.83 65.48C39.53 65.69 39.93 66.43 39.71 67.13C39.5 67.83 38.76 68.23 38.06 68.02C37.36 67.81 36.96 67.07 37.18 66.37C37.39 65.67 38.13 65.27 38.83 65.49" fill="#F8991D"/>
<path d="M45.85 65.46C46.46 65.64 46.81 66.29 46.62 66.9C46.43 67.51 45.79 67.86 45.18 67.67C44.57 67.48 44.22 66.84 44.41 66.23C44.59 65.62 45.24 65.27 45.85 65.46Z" fill="#F8991D"/>
<path d="M42.22 63.9C42.83 64.09 43.18 64.73 42.99 65.35C42.81 65.96 42.16 66.31 41.55 66.12C40.94 65.93 40.59 65.29 40.78 64.68C40.96 64.07 41.61 63.72 42.22 63.91" fill="#F8991D"/>
<path d="M48.29 63.44C48.82 63.6 49.11 64.15 48.95 64.68C48.79 65.21 48.24 65.5 47.71 65.34C47.19 65.18 46.89 64.63 47.05 64.1C47.21 63.58 47.76 63.28 48.29 63.44Z" fill="#F8991D"/>
<path d="M44.98 62.32C45.5 62.48 45.8 63.03 45.64 63.56C45.48 64.09 44.93 64.38 44.4 64.22C43.87 64.06 43.58 63.51 43.74 62.98C43.9 62.45 44.45 62.16 44.98 62.32Z" fill="#F8991D"/>
<path d="M50.61 61.68C51.05 61.81 51.3 62.27 51.16 62.71C51.03 63.15 50.57 63.39 50.13 63.26C49.69 63.13 49.44 62.67 49.58 62.23C49.71 61.79 50.17 61.55 50.61 61.68Z" fill="#F8991D"/>
<path d="M47.33 60.83C47.77 60.96 48.02 61.43 47.88 61.86C47.75 62.3 47.29 62.54 46.85 62.41C46.41 62.28 46.17 61.82 46.3 61.38C46.43 60.94 46.89 60.69 47.33 60.83Z" fill="#F8991D"/>
<path d="M52.46 60.1C52.81 60.2 53.01 60.57 52.9 60.92C52.79 61.27 52.42 61.47 52.07 61.36C51.72 61.25 51.52 60.89 51.63 60.54C51.73 60.19 52.1 59.99 52.45 60.1" fill="#F8991D"/>
<path d="M49.3 59.25C49.65 59.35 49.85 59.72 49.74 60.07C49.63 60.42 49.27 60.62 48.92 60.51C48.57 60.4 48.37 60.03 48.48 59.68C48.59 59.33 48.96 59.13 49.31 59.24" fill="#F8991D"/>
<path d="M4.1 47.61C5.41 48.01 6.15 49.39 5.76 50.7C5.36 52.01 3.98 52.75 2.67 52.36C1.36 51.96 0.619999 50.58 1.01 49.27C1.41 47.96 2.79 47.22 4.1 47.61Z" fill="#F8991D"/>
<path d="M5 55.82C6.31 56.22 7.06 57.6 6.66 58.91C6.26 60.22 4.88 60.96 3.57 60.57C2.26 60.17 1.52 58.79 1.91 57.48C2.31 56.17 3.69 55.43 5 55.82Z" fill="#F8991D"/>
<path d="M5.9 64.02C7.21 64.42 7.95 65.8 7.56 67.11C7.16 68.42 5.78 69.16 4.47 68.77C3.16 68.38 2.42 66.99 2.81 65.68C3.21 64.37 4.59 63.63 5.9 64.02Z" fill="#F8991D"/>
<path d="M54.07 58.77C54.33 58.85 54.48 59.13 54.4 59.39C54.32 59.65 54.04 59.8 53.78 59.72C53.52 59.64 53.37 59.37 53.45 59.1C53.53 58.84 53.81 58.69 54.07 58.77Z" fill="#F8991D"/>
<path d="M50.96 57.66C51.22 57.74 51.37 58.01 51.29 58.28C51.21 58.54 50.93 58.69 50.67 58.61C50.41 58.53 50.26 58.26 50.34 57.99C50.42 57.73 50.69 57.58 50.96 57.66Z" fill="#F8991D"/>
<path d="M17.03 131.37L18.17 124.33H15.98L16.21 122.93H22.11L21.89 124.33H19.7L18.56 131.37H17.03Z" fill="#231F20"/>
<path d="M22 128.89C22 128.56 22.04 128.22 22.08 127.97L22.19 127.27C22.47 125.56 23.62 124.7 25.03 124.7C26.71 124.7 27.54 126.02 27.43 127.51C27.43 127.57 27.35 128.18 27.29 128.44H23.49C23.46 128.57 23.44 128.79 23.44 128.96C23.44 129.63 23.77 130.24 24.61 130.24C25.2 130.24 25.61 129.94 25.71 129.52H27.13C27 130.53 26.03 131.49 24.52 131.49C23.09 131.49 22 130.64 22 128.89ZM26.02 127.3C26.12 126.54 25.77 125.92 25 125.92C24.39 125.92 23.88 126.32 23.71 127.15L23.65 127.47H26C26 127.47 26.02 127.33 26.02 127.3Z" fill="#231F20"/>
<path d="M28.5 128L28.62 127.23C28.9 125.5 30.02 124.7 31.39 124.7C32.76 124.7 33.85 125.57 33.85 126.92C33.85 126.99 33.85 127.06 33.83 127.1H32.42C32.42 127.1 32.42 127.03 32.42 127.01C32.42 126.54 32.08 125.99 31.37 125.99C30.72 125.99 30.2 126.49 30.05 127.45L29.94 128.12C29.9 128.36 29.89 128.56 29.89 128.72C29.89 129.6 30.25 130.16 31.05 130.16C31.65 130.16 32.01 129.85 32.1 129.42H33.52C33.35 130.77 32.26 131.48 30.96 131.48C29.41 131.48 28.42 130.49 28.42 128.88C28.42 128.63 28.45 128.29 28.5 127.98V128Z" fill="#231F20"/>
<path d="M35.93 122.49H37.43L36.88 125.84H36.96C37.27 125.13 37.87 124.71 38.69 124.71C39.89 124.71 40.53 125.61 40.53 126.72C40.53 127.05 40.48 127.44 40.41 127.89L39.85 131.37H38.35L38.92 127.8C38.94 127.64 38.98 127.34 38.98 127.1C38.98 126.48 38.7 125.99 38.03 125.99C37.23 125.99 36.75 126.7 36.6 127.64L35.99 131.37H34.49L35.92 122.49H35.93Z" fill="#231F20"/>
<path d="M42.57 124.81H44.04L43.87 125.84H43.95C44.24 125.19 44.8 124.71 45.69 124.71C46.9 124.71 47.51 125.61 47.51 126.72C47.51 127.12 47.44 127.55 47.38 127.89L46.82 131.37H45.32L45.89 127.8C45.92 127.62 45.95 127.32 45.95 127.1C45.95 126.45 45.63 125.99 45.02 125.99C44.22 125.99 43.76 126.66 43.6 127.64L43 131.37H41.5L42.55 124.81H42.57Z" fill="#231F20"/>
<path d="M48.84 127.26C49.11 125.67 50.22 124.7 51.67 124.7C53.29 124.7 54.36 125.76 54.36 127.45C54.36 127.73 54.34 127.99 54.3 128.24L54.18 128.92C53.9 130.51 52.88 131.49 51.31 131.49C49.74 131.49 48.67 130.47 48.67 128.81C48.67 128.49 48.69 128.2 48.73 127.93L48.84 127.26ZM50.23 128.19C50.2 128.38 50.18 128.56 50.18 128.8C50.18 129.65 50.63 130.22 51.37 130.22C52.07 130.22 52.54 129.65 52.69 128.64L52.8 127.92C52.83 127.73 52.83 127.46 52.83 127.36C52.83 126.54 52.38 125.98 51.65 125.98C50.99 125.98 50.48 126.47 50.33 127.52L50.23 128.2V128.19Z" fill="#231F20"/>
<path d="M56.67 122.49H58.17L56.73 131.37H55.24L56.68 122.49H56.67Z" fill="#231F20"/>
<path d="M58.85 127.26C59.12 125.67 60.23 124.7 61.68 124.7C63.3 124.7 64.37 125.76 64.37 127.45C64.37 127.73 64.35 127.99 64.31 128.24L64.19 128.92C63.91 130.51 62.89 131.49 61.32 131.49C59.75 131.49 58.68 130.47 58.68 128.81C58.68 128.49 58.7 128.2 58.74 127.93L58.85 127.26ZM60.25 128.19C60.22 128.38 60.2 128.56 60.2 128.8C60.2 129.65 60.65 130.22 61.39 130.22C62.09 130.22 62.56 129.65 62.71 128.64L62.82 127.92C62.85 127.73 62.85 127.46 62.85 127.36C62.85 126.54 62.4 125.98 61.67 125.98C61.01 125.98 60.5 126.47 60.35 127.52L60.25 128.2V128.19Z" fill="#231F20"/>
<path d="M69.78 126.06H69.86L70.06 124.83H71.55L70.5 131.4C70.24 132.99 69.21 133.77 67.57 133.77C65.93 133.77 65.06 132.83 65.06 131.83C65.06 131.78 65.06 131.71 65.07 131.7H66.47C66.47 131.7 66.48 131.77 66.49 131.79C66.54 132.19 67 132.55 67.65 132.55C68.54 132.55 68.92 132.05 69.08 131.1L69.22 130.23H69.13C68.92 130.77 68.34 131.23 67.49 131.23C66.34 131.23 65.43 130.3 65.43 128.72C65.43 128.52 65.45 128.11 65.5 127.82L65.6 127.28C65.93 125.5 66.95 124.73 68.07 124.73C69.03 124.73 69.63 125.32 69.8 126.06H69.78ZM68.42 126.03C67.71 126.03 67.23 126.63 67.07 127.6L67 128.04C66.97 128.18 66.94 128.47 66.94 128.63C66.94 129.5 67.36 130.06 68.12 130.06C68.79 130.06 69.31 129.47 69.47 128.48L69.54 127.99C69.59 127.72 69.59 127.49 69.59 127.42C69.59 126.57 69.11 126.02 68.42 126.02V126.03Z" fill="#231F20"/>
<path d="M75.36 131.31C75.34 131.37 75.16 131.74 75.14 131.77C74.45 133.19 73.83 133.67 72.49 133.67C72.16 133.67 71.84 133.63 71.66 133.58L71.88 132.37C72.04 132.41 72.23 132.43 72.42 132.43C72.96 132.43 73.24 132.19 73.46 131.66L73.62 131.27L72.62 124.81H74.15L74.69 129.89H74.76L76.71 124.81H78.29L75.35 131.3L75.36 131.31Z" fill="#231F20"/>
<path d="M3.58 109.51H0.0999985V108.25H8.58V109.51H5.08V119.71H3.58V109.51Z" fill="#231F20"/>
<path d="M20.58 114.34H16.13V118.47H21.09V119.71H14.65V108.25H20.84V109.49H16.13V113.11H20.58V114.33V114.34Z" fill="#231F20"/>
<path d="M35.81 119.34C35.27 119.61 34.18 119.88 32.78 119.88C29.55 119.88 27.12 117.84 27.12 114.08C27.12 110.32 29.55 108.06 33.1 108.06C34.53 108.06 35.43 108.37 35.82 108.57L35.46 109.78C34.9 109.51 34.1 109.3 33.15 109.3C30.46 109.3 28.68 111.02 28.68 114.03C28.68 116.83 30.29 118.64 33.08 118.64C33.98 118.64 34.9 118.45 35.49 118.16L35.8 119.33L35.81 119.34Z" fill="#231F20"/>
<path d="M51.89 113.86C51.89 117.8 49.49 119.89 46.57 119.89C43.65 119.89 41.42 117.54 41.42 114.08C41.42 110.44 43.68 108.06 46.74 108.06C49.8 108.06 51.89 110.46 51.89 113.86ZM43 114.05C43 116.5 44.33 118.69 46.65 118.69C48.97 118.69 50.32 116.53 50.32 113.93C50.32 111.65 49.13 109.27 46.67 109.27C44.21 109.27 43 111.53 43 114.05Z" fill="#231F20"/>
<path d="M60.36 109.51H56.88V108.25H65.36V109.51H61.86V119.71H60.36V109.51Z" fill="#231F20"/>
<path d="M77.36 114.34H72.91V118.47H77.87V119.71H71.43V108.25H77.62V109.49H72.91V113.11H77.36V114.33V114.34Z" fill="#231F20"/>
<path d="M92.59 119.34C92.05 119.61 90.96 119.88 89.56 119.88C86.33 119.88 83.9 117.84 83.9 114.08C83.9 110.32 86.33 108.06 89.88 108.06C91.31 108.06 92.21 108.37 92.6 108.57L92.24 109.78C91.68 109.51 90.88 109.3 89.93 109.3C87.24 109.3 85.46 111.02 85.46 114.03C85.46 116.83 87.07 118.64 89.86 118.64C90.76 118.64 91.68 118.45 92.27 118.16L92.58 119.33L92.59 119.34Z" fill="#231F20"/>
</g>
<defs>
<clipPath id="clip0_38_849">
<rect width="93.25" height="133.77" fill="white"/>
</clipPath>
</defs>
</svg>
