<?xml version="1.0" encoding="UTF-8"?>
<svg id="Layer_1" data-name="Layer 1" xmlns="http://www.w3.org/2000/svg" viewBox="0 0 70 100">
  <defs>
    <style>
      .cls-1 {
        fill: #fff;
        stroke-width: 0px;
      }
    </style>
  </defs>
  <g>
    <path class="cls-1" d="m29.79,1.85c0,1.02-.83,1.85-1.86,1.85s-1.86-.83-1.86-1.85.83-1.85,1.86-1.85,1.86.83,1.86,1.85"/>
    <path class="cls-1" d="m12.79,14.53c0,.96-.78,1.73-1.74,1.73s-1.74-.77-1.74-1.73.78-1.73,1.74-1.73,1.74.78,1.74,1.73"/>
    <path class="cls-1" d="m17.63,12.01c0,.95-.78,1.73-1.74,1.73s-1.74-.77-1.74-1.73.78-1.73,1.74-1.73,1.74.77,1.74,1.73"/>
    <path class="cls-1" d="m22.47,9.48c0,.96-.78,1.73-1.74,1.73s-1.74-.77-1.74-1.73.78-1.73,1.74-1.73,1.74.78,1.74,1.73"/>
    <path class="cls-1" d="m27.72,7.2c0,.89-.72,1.61-1.61,1.61s-1.61-.72-1.61-1.61.72-1.61,1.61-1.61,1.61.72,1.61,1.61"/>
    <path class="cls-1" d="m26.16,11.75c0,.75-.61,1.36-1.36,1.36s-1.37-.61-1.37-1.36.61-1.36,1.37-1.36,1.36.61,1.36,1.36"/>
    <path class="cls-1" d="m24.89,16.08c0,.61-.5,1.11-1.12,1.11s-1.12-.5-1.12-1.11.5-1.11,1.12-1.11,1.12.5,1.12,1.11"/>
    <path class="cls-1" d="m24.2,19.47c0,.48-.39.87-.87.87s-.87-.39-.87-.87.39-.86.87-.86.87.39.87.86"/>
    <path class="cls-1" d="m23.66,22.62c0,.34-.28.62-.62.62s-.62-.28-.62-.62.28-.62.62-.62.62.28.62.62"/>
    <path class="cls-1" d="m12.79,19.46c0,.89-.72,1.61-1.61,1.61s-1.61-.72-1.61-1.61.72-1.61,1.61-1.61,1.61.72,1.61,1.61"/>
    <path class="cls-1" d="m17.07,16.5c0,.89-.72,1.61-1.61,1.61s-1.61-.72-1.61-1.61.72-1.61,1.61-1.61,1.61.72,1.61,1.61"/>
    <path class="cls-1" d="m16.88,20.45c0,.82-.67,1.48-1.49,1.48s-1.49-.66-1.49-1.48.66-1.48,1.49-1.48,1.49.66,1.49,1.48"/>
    <path class="cls-1" d="m21.12,17.89c0,.82-.67,1.48-1.49,1.48s-1.49-.66-1.49-1.48.67-1.48,1.49-1.48,1.49.66,1.49,1.48"/>
    <path class="cls-1" d="m17.23,23.94c0,.75-.61,1.36-1.36,1.36s-1.37-.61-1.37-1.36.61-1.36,1.37-1.36,1.36.61,1.36,1.36"/>
    <path class="cls-1" d="m20.76,21.5c0,.75-.61,1.36-1.36,1.36s-1.36-.61-1.36-1.36.61-1.36,1.36-1.36,1.36.61,1.36,1.36"/>
    <path class="cls-1" d="m18,27.22c0,.68-.55,1.24-1.24,1.24s-1.24-.55-1.24-1.24.55-1.23,1.24-1.23,1.24.55,1.24,1.23"/>
    <path class="cls-1" d="m20.84,24.65c0,.68-.55,1.23-1.24,1.23s-1.24-.55-1.24-1.23.56-1.24,1.24-1.24,1.24.55,1.24,1.24"/>
    <path class="cls-1" d="m19.55,29.94c0,.61-.5,1.11-1.12,1.11s-1.12-.5-1.12-1.11.5-1.11,1.12-1.11,1.12.5,1.12,1.11"/>
    <path class="cls-1" d="m21.59,27.3c0,.62-.5,1.11-1.12,1.11s-1.12-.5-1.12-1.11.5-1.11,1.12-1.11,1.12.5,1.12,1.11"/>
    <path class="cls-1" d="m21.34,32.04c0,.54-.44.99-.99.99s-.99-.44-.99-.99.44-.99.99-.99.99.44.99.99"/>
    <path class="cls-1" d="m22.69,29.53c0,.55-.44.99-.99.99s-.99-.44-.99-.99.44-.99.99-.99.99.44.99.99"/>
    <path class="cls-1" d="m22.91,33.87c0,.48-.39.86-.87.86s-.87-.39-.87-.86.39-.87.87-.87.87.39.87.87"/>
    <path class="cls-1" d="m23.87,31.52c0,.48-.39.86-.87.86s-.87-.39-.87-.86.39-.87.87-.87.87.39.87.87"/>
    <path class="cls-1" d="m24.38,35.38c0,.41-.33.74-.75.74s-.74-.33-.74-.74.33-.74.74-.74.75.33.75.74"/>
    <path class="cls-1" d="m25.03,33.15c0,.41-.33.74-.74.74s-.74-.33-.74-.74.33-.74.74-.74.74.33.74.74"/>
    <path class="cls-1" d="m25.76,36.64c0,.34-.28.62-.62.62s-.62-.28-.62-.62.28-.62.62-.62.62.28.62.62"/>
    <path class="cls-1" d="m26.14,34.51c0,.34-.28.62-.62.62s-.62-.28-.62-.62.28-.62.62-.62.62.28.62.62"/>
    <path class="cls-1" d="m26.98,37.69c0,.27-.22.49-.5.49s-.5-.22-.5-.49.22-.49.5-.49.5.22.5.49"/>
    <path class="cls-1" d="m27.24,35.59c0,.27-.22.49-.5.49s-.49-.22-.49-.49.22-.49.49-.49.5.22.5.49"/>
    <path class="cls-1" d="m21.55,13.94c0,.89-.72,1.61-1.61,1.61s-1.61-.72-1.61-1.61.72-1.61,1.61-1.61,1.61.72,1.61,1.61"/>
    <path class="cls-1" d="m12.94,23.73c0,.82-.67,1.48-1.49,1.48s-1.49-.66-1.49-1.48.67-1.48,1.49-1.48,1.49.66,1.49,1.48"/>
    <path class="cls-1" d="m13.46,27.55c0,.75-.61,1.36-1.37,1.36s-1.36-.61-1.36-1.36.61-1.36,1.36-1.36,1.37.61,1.37,1.36"/>
    <path class="cls-1" d="m14.44,31.03c0,.68-.55,1.24-1.24,1.24s-1.24-.55-1.24-1.24.55-1.23,1.24-1.23,1.24.55,1.24,1.23"/>
    <path class="cls-1" d="m16.16,33.9c0,.61-.5,1.11-1.12,1.11s-1.12-.5-1.12-1.11.5-1.11,1.12-1.11,1.12.5,1.12,1.11"/>
    <path class="cls-1" d="m18.18,36.24c0,.55-.44.99-.99.99s-.99-.44-.99-.99.44-.99.99-.99.99.44.99.99"/>
    <path class="cls-1" d="m18.8,32.97c0,.55-.44.99-.99.99s-.99-.44-.99-.99.44-.99.99-.99.99.44.99.99"/>
    <path class="cls-1" d="m20.34,37.99c0,.48-.39.87-.87.87s-.87-.39-.87-.87.39-.86.87-.86.87.39.87.86"/>
    <path class="cls-1" d="m20.67,35.06c0,.48-.39.86-.87.86s-.87-.39-.87-.86.39-.86.87-.86.87.39.87.86"/>
    <path class="cls-1" d="m22.32,39.3c0,.41-.33.74-.74.74s-.74-.33-.74-.74.33-.74.74-.74.74.33.74.74"/>
    <path class="cls-1" d="m22.4,36.69c0,.41-.33.74-.74.74s-.74-.33-.74-.74.33-.74.74-.74.74.33.74.74"/>
    <path class="cls-1" d="m24.09,40.58c0,.34-.28.62-.62.62s-.62-.28-.62-.62.28-.62.62-.62.62.27.62.62"/>
    <path class="cls-1" d="m23.98,38.05c0,.34-.28.62-.62.62s-.62-.28-.62-.62.28-.62.62-.62.62.28.62.62"/>
    <path class="cls-1" d="m25.63,41.56c0,.27-.22.49-.5.49s-.5-.22-.5-.49.22-.49.5-.49.5.22.5.49"/>
    <path class="cls-1" d="m25.55,39.12c0,.27-.22.49-.5.49s-.5-.22-.5-.49.22-.49.5-.49.5.22.5.49"/>
    <path class="cls-1" d="m24.1,4.27c0,1.02-.83,1.85-1.86,1.85s-1.86-.83-1.86-1.85.83-1.85,1.86-1.85,1.86.83,1.86,1.85"/>
    <path class="cls-1" d="m18.41,6.69c0,1.02-.83,1.85-1.86,1.85s-1.86-.83-1.86-1.85.83-1.85,1.86-1.85,1.86.83,1.86,1.85"/>
    <path class="cls-1" d="m12.71,9.1c0,1.02-.83,1.85-1.86,1.85s-1.86-.83-1.86-1.85.83-1.85,1.86-1.85,1.86.83,1.86,1.85"/>
    <path class="cls-1" d="m26.92,42.43c0,.2-.17.37-.37.37s-.37-.17-.37-.37.17-.37.37-.37.37.17.37.37"/>
    <path class="cls-1" d="m27.05,39.96c0,.2-.17.37-.37.37s-.37-.17-.37-.37.17-.37.37-.37.37.17.37.37"/>
    <path class="cls-1" d="m63.21,18.68c-.97.34-2.03-.16-2.38-1.13-.34-.96.16-2.02,1.13-2.37.97-.34,2.03.16,2.38,1.13.34.96-.16,2.02-1.13,2.37"/>
    <path class="cls-1" d="m45.54,6.95c-.91.32-1.9-.15-2.22-1.05-.32-.9.15-1.89,1.06-2.21.9-.32,1.9.15,2.22,1.06.32.9-.15,1.89-1.06,2.21"/>
    <path class="cls-1" d="m49.54,10.65c-.9.32-1.9-.15-2.22-1.05-.32-.9.15-1.89,1.06-2.21.9-.32,1.9.15,2.21,1.05.32.9-.15,1.89-1.06,2.21"/>
    <path class="cls-1" d="m53.55,14.35c-.9.32-1.9-.15-2.21-1.05-.32-.9.15-1.89,1.06-2.21.91-.32,1.9.15,2.22,1.05.32.9-.15,1.89-1.06,2.21"/>
    <path class="cls-1" d="m57.46,18.53c-.84.3-1.76-.14-2.06-.98-.3-.84.14-1.75.98-2.05.84-.3,1.76.14,2.06.98s-.14,1.76-.98,2.05"/>
    <path class="cls-1" d="m52.63,18.58c-.71.25-1.49-.12-1.74-.83-.25-.71.12-1.48.83-1.74.71-.25,1.49.12,1.74.83.25.71-.12,1.48-.83,1.74"/>
    <path class="cls-1" d="m48.11,18.83c-.58.21-1.22-.1-1.42-.68-.21-.58.1-1.21.68-1.42.58-.2,1.22.1,1.42.68.21.58-.1,1.22-.68,1.42"/>
    <path class="cls-1" d="m44.67,19.31c-.45.16-.95-.08-1.11-.53-.16-.45.08-.94.53-1.1.45-.16.95.08,1.11.53.16.45-.08.95-.53,1.11"/>
    <path class="cls-1" d="m41.51,19.85c-.32.11-.68-.06-.79-.38-.12-.32.05-.67.38-.79.32-.11.68.06.79.38.11.32-.05.67-.38.79"/>
    <path class="cls-1" d="m40.88,8.59c-.84.3-1.76-.14-2.06-.98-.3-.84.14-1.75.98-2.05.84-.3,1.76.14,2.06.98.3.84-.14,1.75-.98,2.05"/>
    <path class="cls-1" d="m45.1,11.62c-.84.3-1.76-.14-2.06-.98-.3-.84.14-1.75.98-2.05.84-.3,1.76.14,2.06.98.3.84-.14,1.75-.98,2.05"/>
    <path class="cls-1" d="m41.3,12.76c-.77.27-1.62-.13-1.9-.9-.28-.77.13-1.62.91-1.89.77-.27,1.63.13,1.9.9.27.77-.13,1.62-.91,1.89"/>
    <path class="cls-1" d="m45.14,15.89c-.78.27-1.63-.13-1.9-.9-.27-.77.13-1.62.91-1.89.78-.27,1.63.13,1.9.9.27.77-.13,1.62-.91,1.89"/>
    <path class="cls-1" d="m38.12,14.25c-.71.25-1.49-.12-1.74-.83-.25-.71.12-1.48.83-1.74.71-.25,1.49.12,1.74.83.25.71-.12,1.48-.83,1.74"/>
    <path class="cls-1" d="m41.6,16.76c-.71.25-1.49-.12-1.74-.83-.25-.71.12-1.48.83-1.74.71-.25,1.49.12,1.74.83.25.71-.12,1.48-.83,1.74"/>
    <path class="cls-1" d="m35.27,16.07c-.65.23-1.35-.11-1.58-.75-.23-.64.11-1.35.76-1.58.65-.23,1.35.11,1.58.75.23.64-.11,1.35-.76,1.58"/>
    <path class="cls-1" d="m38.65,17.88c-.65.23-1.35-.11-1.58-.75-.23-.65.11-1.35.76-1.58.65-.23,1.35.11,1.58.75.23.64-.11,1.35-.75,1.58"/>
    <path class="cls-1" d="m33.21,18.44c-.58.21-1.22-.1-1.42-.68-.21-.58.1-1.21.68-1.42.58-.2,1.22.1,1.43.68.21.58-.1,1.21-.68,1.42"/>
    <path class="cls-1" d="m36.39,19.48c-.58.2-1.22-.1-1.42-.68-.21-.58.1-1.21.68-1.42.58-.21,1.22.1,1.42.68.21.58-.1,1.21-.68,1.42"/>
    <path class="cls-1" d="m31.83,20.82c-.52.18-1.08-.09-1.27-.6-.18-.51.09-1.08.6-1.26.52-.18,1.08.09,1.27.6.18.51-.09,1.08-.6,1.26"/>
    <path class="cls-1" d="m34.65,21.25c-.52.18-1.08-.09-1.27-.6-.18-.51.09-1.08.6-1.26.52-.18,1.08.09,1.27.6.18.51-.09,1.08-.61,1.26"/>
    <path class="cls-1" d="m30.62,22.91c-.45.16-.95-.07-1.11-.53-.16-.45.08-.94.53-1.1.45-.16.95.08,1.11.53.16.45-.08.94-.53,1.1"/>
    <path class="cls-1" d="m33.17,23.02c-.45.16-.95-.08-1.11-.53-.16-.45.08-.94.53-1.1.45-.16.95.08,1.11.53.16.45-.08.94-.53,1.11"/>
    <path class="cls-1" d="m29.68,24.79c-.39.14-.81-.07-.95-.45-.14-.39.07-.81.45-.95.39-.14.81.07.95.45.14.39-.06.81-.45.95"/>
    <path class="cls-1" d="m32,24.66c-.39.14-.81-.07-.95-.45-.14-.39.06-.81.45-.95.39-.14.81.06.95.45.14.39-.07.81-.45.95"/>
    <path class="cls-1" d="m28.95,26.51c-.32.11-.68-.05-.79-.38-.12-.32.05-.68.38-.79.32-.11.68.05.79.38.12.32-.05.67-.38.79"/>
    <path class="cls-1" d="m31.09,26.15c-.32.11-.68-.05-.79-.38-.11-.32.06-.68.38-.79.32-.11.68.05.79.38.11.32-.06.68-.38.79"/>
    <path class="cls-1" d="m28.37,28.01c-.26.09-.54-.04-.63-.3-.09-.26.04-.54.3-.63.26-.09.54.04.63.3.09.26-.05.54-.3.63"/>
    <path class="cls-1" d="m30.43,27.55c-.26.09-.54-.04-.63-.3-.09-.26.04-.54.3-.63.26-.09.54.04.63.3.09.26-.04.54-.3.63"/>
    <path class="cls-1" d="m49.02,14.98c-.84.3-1.76-.14-2.06-.98-.3-.84.14-1.75.98-2.05.84-.3,1.76.14,2.06.98.3.84-.14,1.75-.98,2.05"/>
    <path class="cls-1" d="m36.89,10.16c-.78.27-1.63-.13-1.9-.9-.27-.77.13-1.62.91-1.89.77-.27,1.63.13,1.9.9.28.77-.13,1.62-.91,1.89"/>
    <path class="cls-1" d="m33.45,11.92c-.71.25-1.49-.12-1.74-.83-.25-.71.12-1.48.83-1.74.71-.25,1.49.12,1.74.83.25.71-.12,1.48-.83,1.73"/>
    <path class="cls-1" d="m30.48,14c-.65.23-1.36-.11-1.59-.75-.23-.64.11-1.35.76-1.58.65-.23,1.35.11,1.58.75.23.64-.11,1.35-.75,1.58"/>
    <path class="cls-1" d="m28.34,16.57c-.58.21-1.22-.1-1.43-.68-.21-.58.1-1.21.68-1.42.58-.2,1.22.1,1.43.68.21.58-.1,1.21-.68,1.42"/>
    <path class="cls-1" d="m26.79,19.25c-.52.18-1.08-.09-1.27-.6-.18-.51.09-1.08.61-1.26.52-.18,1.08.09,1.26.6.18.52-.09,1.08-.6,1.26"/>
    <path class="cls-1" d="m30.1,18.75c-.52.18-1.08-.09-1.27-.6-.18-.51.09-1.08.61-1.26.52-.18,1.08.09,1.27.6.18.52-.09,1.08-.6,1.26"/>
    <path class="cls-1" d="m25.87,21.87c-.45.16-.95-.08-1.11-.53-.16-.45.08-.95.53-1.11.45-.16.95.08,1.11.53.16.45-.08.94-.53,1.1"/>
    <path class="cls-1" d="m28.75,21.2c-.45.16-.95-.08-1.11-.53-.16-.45.08-.95.53-1.11.45-.16.95.08,1.11.53.16.45-.08.94-.53,1.1"/>
    <path class="cls-1" d="m25.29,24.16c-.39.14-.81-.07-.95-.45-.14-.39.07-.81.45-.95.39-.14.81.07.95.45.14.39-.06.81-.45.95"/>
    <path class="cls-1" d="m27.78,23.37c-.39.14-.81-.06-.95-.45-.14-.39.07-.81.45-.95.39-.14.81.07.95.45.14.39-.06.81-.45.95"/>
    <path class="cls-1" d="m24.67,26.25c-.32.11-.68-.05-.79-.38-.11-.32.05-.67.38-.79.32-.11.68.05.79.38.12.32-.05.67-.38.79"/>
    <path class="cls-1" d="m27.02,25.31c-.32.11-.68-.05-.79-.38-.11-.32.05-.67.38-.79.32-.11.68.05.79.38.11.32-.05.67-.38.79"/>
    <path class="cls-1" d="m24.25,28.02c-.26.09-.54-.04-.63-.3-.09-.26.04-.54.3-.63.26-.09.54.04.63.3.09.26-.04.54-.3.63"/>
    <path class="cls-1" d="m26.53,27.14c-.26.09-.54-.04-.63-.3-.09-.26.04-.54.3-.63.26-.09.54.04.63.3.09.26-.04.54-.3.63"/>
    <path class="cls-1" d="m59.02,14.14c-.97.34-2.03-.16-2.38-1.13-.34-.96.17-2.02,1.13-2.37.97-.34,2.03.16,2.37,1.13.34.96-.16,2.02-1.13,2.37"/>
    <path class="cls-1" d="m54.84,9.6c-.97.34-2.03-.16-2.38-1.13-.34-.97.16-2.02,1.13-2.37.97-.34,2.03.16,2.38,1.13.34.97-.16,2.03-1.13,2.37"/>
    <path class="cls-1" d="m50.65,5.06c-.97.34-2.03-.16-2.38-1.13-.34-.97.16-2.02,1.13-2.37.97-.34,2.03.16,2.37,1.13.34.96-.16,2.02-1.13,2.37"/>
    <path class="cls-1" d="m23.86,29.53c-.19.07-.41-.03-.48-.23-.07-.19.03-.4.23-.47.19-.07.41.03.47.22.07.19-.03.41-.22.47"/>
    <path class="cls-1" d="m26.24,28.83c-.19.07-.41-.03-.47-.23-.07-.19.03-.4.23-.47.19-.07.41.03.48.23.07.19-.03.41-.23.47"/>
    <path class="cls-1" d="m57.88,55.84c-.64-.8-.51-1.97.29-2.6.8-.64,1.97-.51,2.61.29.64.8.51,1.97-.29,2.61-.8.64-1.97.51-2.62-.29"/>
    <path class="cls-1" d="m63.22,35.36c-.6-.75-.47-1.83.27-2.43.75-.6,1.84-.48,2.44.27.6.75.48,1.83-.27,2.43-.75.6-1.84.47-2.44-.27"/>
    <path class="cls-1" d="m61.02,40.34c-.6-.75-.48-1.83.27-2.43.75-.6,1.84-.48,2.44.27.6.75.48,1.83-.27,2.43-.75.6-1.84.48-2.44-.27"/>
    <path class="cls-1" d="m58.83,45.33c-.6-.75-.48-1.84.27-2.43.75-.6,1.84-.48,2.44.27.6.75.47,1.83-.27,2.43-.75.6-1.84.48-2.44-.27"/>
    <path class="cls-1" d="m56.15,50.38c-.56-.69-.44-1.7.25-2.26.7-.56,1.71-.44,2.27.25.56.69.44,1.71-.25,2.26-.7.55-1.71.44-2.27-.25"/>
    <path class="cls-1" d="m54.52,45.85c-.47-.59-.38-1.44.21-1.91.59-.47,1.45-.37,1.92.21.47.59.37,1.44-.22,1.91-.59.47-1.45.37-1.92-.21"/>
    <path class="cls-1" d="m52.79,41.68c-.38-.48-.31-1.18.18-1.56.48-.38,1.18-.31,1.57.17.38.48.31,1.18-.18,1.56-.48.38-1.18.31-1.57-.18"/>
    <path class="cls-1" d="m51.22,38.6c-.3-.37-.24-.92.14-1.22.37-.3.92-.24,1.22.14.3.37.24.92-.14,1.22-.38.3-.92.24-1.22-.14"/>
    <path class="cls-1" d="m49.67,35.8c-.21-.27-.17-.66.1-.87.27-.21.66-.17.87.1.21.27.17.66-.1.87-.27.21-.66.17-.87-.1"/>
    <path class="cls-1" d="m60.14,31.52c-.56-.69-.44-1.7.25-2.26.7-.55,1.71-.44,2.27.25.56.69.44,1.7-.25,2.26-.69.55-1.71.44-2.27-.25"/>
    <path class="cls-1" d="m58.65,36.49c-.56-.69-.44-1.7.25-2.26.7-.55,1.71-.44,2.27.25.55.69.44,1.7-.25,2.26-.7.55-1.71.44-2.27-.25"/>
    <path class="cls-1" d="m56.32,33.28c-.51-.64-.41-1.57.24-2.08.64-.51,1.58-.41,2.09.23.51.64.41,1.57-.23,2.08-.64.51-1.58.41-2.09-.23"/>
    <path class="cls-1" d="m54.62,37.92c-.51-.64-.41-1.57.23-2.08.64-.51,1.58-.41,2.09.23.51.64.41,1.57-.23,2.09-.64.51-1.58.41-2.09-.23"/>
    <path class="cls-1" d="m53.87,30.78c-.47-.59-.38-1.44.21-1.91.59-.47,1.45-.37,1.92.21.47.59.37,1.44-.22,1.91-.59.47-1.45.37-1.92-.21"/>
    <path class="cls-1" d="m52.62,34.87c-.47-.59-.37-1.44.22-1.91.59-.47,1.45-.37,1.92.21.47.59.37,1.44-.22,1.91-.59.47-1.45.37-1.92-.21"/>
    <path class="cls-1" d="m51.21,28.69c-.43-.53-.34-1.31.19-1.74.54-.43,1.32-.34,1.74.19.43.53.34,1.31-.19,1.74-.54.43-1.32.34-1.74-.19"/>
    <path class="cls-1" d="m50.6,32.46c-.43-.53-.34-1.31.2-1.74.54-.43,1.31-.34,1.74.19.43.53.34,1.31-.2,1.74-.53.43-1.31.34-1.74-.19"/>
    <path class="cls-1" d="m48.29,27.52c-.38-.48-.31-1.18.17-1.56.48-.38,1.19-.3,1.57.18.38.48.31,1.18-.18,1.56-.48.38-1.18.31-1.57-.17"/>
    <path class="cls-1" d="m48.34,30.86c-.38-.48-.31-1.18.17-1.56.48-.38,1.19-.3,1.57.18.38.48.31,1.18-.18,1.56-.48.38-1.18.31-1.57-.17"/>
    <path class="cls-1" d="m45.57,27c-.34-.43-.27-1.05.16-1.39.43-.34,1.05-.27,1.4.15.34.43.27,1.05-.16,1.39-.43.34-1.05.27-1.4-.16"/>
    <path class="cls-1" d="m46.1,29.8c-.34-.43-.27-1.05.16-1.39.43-.34,1.05-.27,1.39.16.34.43.27,1.05-.15,1.39-.43.34-1.05.27-1.4-.16"/>
    <path class="cls-1" d="m43.2,26.55c-.3-.37-.24-.92.14-1.22.38-.3.92-.24,1.22.14.3.37.24.92-.14,1.22-.38.3-.92.24-1.22-.14"/>
    <path class="cls-1" d="m43.93,28.98c-.3-.37-.24-.92.14-1.22.37-.3.92-.24,1.22.14.3.37.24.92-.14,1.22-.38.3-.92.24-1.22-.14"/>
    <path class="cls-1" d="m41.1,26.28c-.25-.32-.2-.79.12-1.04.32-.25.79-.2,1.05.12.26.32.2.79-.12,1.04-.32.26-.79.2-1.05-.12"/>
    <path class="cls-1" d="m42,28.42c-.26-.32-.2-.79.12-1.04.32-.26.79-.2,1.05.12.26.32.2.79-.12,1.04-.32.26-.79.2-1.05-.12"/>
    <path class="cls-1" d="m39.24,26.16c-.21-.27-.17-.66.1-.87.27-.21.66-.17.87.1.21.27.17.66-.1.87-.27.21-.66.17-.87-.1"/>
    <path class="cls-1" d="m40.28,28.05c-.21-.27-.17-.66.1-.87.27-.21.66-.17.87.1.21.27.17.66-.1.87-.27.21-.66.17-.87-.1"/>
    <path class="cls-1" d="m37.63,26.1c-.17-.21-.14-.52.08-.69.21-.17.53-.14.7.08.17.21.14.52-.08.69-.21.17-.53.14-.7-.08"/>
    <path class="cls-1" d="m38.74,27.89c-.17-.21-.14-.52.08-.7.21-.17.53-.14.7.08.17.21.14.52-.08.69-.22.17-.53.14-.7-.08"/>
    <path class="cls-1" d="m56.75,41.27c-.56-.7-.44-1.7.25-2.26.7-.56,1.71-.44,2.27.25.56.69.44,1.7-.25,2.26-.7.55-1.71.44-2.26-.25"/>
    <path class="cls-1" d="m57.34,28.27c-.51-.64-.41-1.57.23-2.08.64-.51,1.58-.41,2.09.23.51.64.41,1.57-.23,2.08-.64.51-1.58.41-2.09-.23"/>
    <path class="cls-1" d="m54.55,25.61c-.47-.59-.38-1.44.21-1.91.59-.47,1.45-.37,1.92.21.47.59.37,1.44-.22,1.91-.59.47-1.45.37-1.92-.21"/>
    <path class="cls-1" d="m51.6,23.5c-.43-.53-.34-1.31.19-1.74.54-.43,1.32-.34,1.74.19.43.53.34,1.31-.2,1.74-.54.42-1.31.34-1.74-.2"/>
    <path class="cls-1" d="m48.46,22.33c-.38-.48-.31-1.18.18-1.56.48-.38,1.18-.31,1.57.18.39.48.31,1.18-.17,1.56-.48.38-1.18.31-1.57-.17"/>
    <path class="cls-1" d="m45.41,21.75c-.34-.43-.27-1.05.16-1.39.43-.34,1.05-.27,1.39.16.34.43.27,1.05-.16,1.39-.43.34-1.05.27-1.39-.15"/>
    <path class="cls-1" d="m46.97,24.69c-.34-.43-.27-1.05.16-1.39.43-.34,1.05-.27,1.39.16.34.43.27,1.05-.16,1.39-.43.34-1.05.27-1.39-.16"/>
    <path class="cls-1" d="m42.63,21.73c-.3-.37-.24-.92.14-1.22.38-.3.92-.24,1.22.14.3.37.24.92-.14,1.22-.38.3-.92.24-1.22-.14"/>
    <path class="cls-1" d="m44.21,24.22c-.3-.37-.24-.92.14-1.22.38-.3.92-.24,1.22.14.3.38.24.92-.14,1.22-.38.3-.92.24-1.22-.14"/>
    <path class="cls-1" d="m40.27,21.94c-.26-.32-.2-.79.12-1.04.32-.25.79-.2,1.05.12.26.32.2.78-.12,1.04-.32.26-.79.2-1.05-.12"/>
    <path class="cls-1" d="m41.83,24.03c-.26-.32-.2-.79.12-1.04.32-.26.79-.2,1.05.12.26.32.2.78-.12,1.04-.32.26-.79.2-1.05-.12"/>
    <path class="cls-1" d="m38.08,22.04c-.21-.27-.17-.65.1-.87.27-.21.66-.17.87.1.21.27.17.66-.1.87-.27.21-.66.17-.87-.1"/>
    <path class="cls-1" d="m39.75,23.95c-.21-.27-.17-.66.1-.87.27-.21.66-.17.87.1.21.27.17.66-.1.87-.27.21-.66.17-.87-.1"/>
    <path class="cls-1" d="m36.26,22.22c-.17-.21-.14-.52.08-.69.21-.17.53-.13.7.08.17.21.14.52-.08.69-.21.17-.53.14-.7-.08"/>
    <path class="cls-1" d="m37.85,24.08c-.17-.21-.14-.52.08-.69.21-.17.53-.14.7.08.17.21.14.52-.08.69-.21.17-.53.14-.7-.08"/>
    <path class="cls-1" d="m60.81,50.41c-.64-.8-.51-1.97.29-2.6.8-.64,1.97-.51,2.61.29.64.8.51,1.96-.29,2.6-.8.64-1.97.51-2.62-.29"/>
    <path class="cls-1" d="m63.75,44.98c-.64-.8-.51-1.96.29-2.61.8-.64,1.97-.51,2.61.29.64.8.51,1.97-.29,2.61-.8.64-1.97.51-2.62-.29"/>
    <path class="cls-1" d="m66.69,39.56c-.64-.8-.51-1.97.29-2.61.8-.64,1.97-.51,2.62.29.64.8.51,1.97-.29,2.61-.8.64-1.97.51-2.62-.29"/>
    <path class="cls-1" d="m34.71,22.35c-.13-.16-.1-.39.06-.52.16-.13.39-.1.52.06.13.16.1.39-.06.52-.16.13-.39.1-.52-.06"/>
    <path class="cls-1" d="m36.15,24.36c-.13-.16-.1-.39.06-.52.16-.13.39-.1.52.06.13.16.1.39-.06.52-.16.13-.39.1-.52-.06"/>
    <path class="cls-1" d="m21.24,63.63c.55-.86,1.7-1.11,2.57-.56.87.55,1.12,1.7.56,2.56-.55.86-1.71,1.11-2.57.56-.87-.55-1.12-1.7-.56-2.56"/>
    <path class="cls-1" d="m42.43,62.09c.52-.8,1.59-1.04,2.4-.52.81.51,1.04,1.59.53,2.39-.52.8-1.59,1.04-2.4.52-.81-.52-1.04-1.59-.53-2.39"/>
    <path class="cls-1" d="m36.98,61.62c.52-.8,1.59-1.04,2.4-.52.81.52,1.04,1.58.53,2.39-.52.8-1.59,1.04-2.4.52-.81-.52-1.04-1.59-.52-2.39"/>
    <path class="cls-1" d="m31.54,61.14c.52-.8,1.59-1.04,2.4-.52.81.52,1.04,1.59.53,2.39-.52.8-1.59,1.04-2.4.52-.81-.52-1.04-1.59-.52-2.39"/>
    <path class="cls-1" d="m25.88,60.24c.48-.75,1.48-.96,2.23-.49.75.48.97,1.47.49,2.22-.48.75-1.48.96-2.23.49-.75-.48-.97-1.47-.49-2.22"/>
    <path class="cls-1" d="m29.66,57.25c.41-.63,1.25-.82,1.88-.41.63.4.82,1.24.41,1.88-.41.63-1.25.82-1.88.41-.63-.41-.82-1.25-.41-1.88"/>
    <path class="cls-1" d="m33.07,54.28c.33-.52,1.02-.67,1.54-.34.52.33.67,1.02.34,1.54-.33.52-1.02.67-1.54.34-.52-.33-.67-1.02-.34-1.54"/>
    <path class="cls-1" d="m35.5,51.81c.26-.4.8-.52,1.2-.26.4.26.52.79.26,1.2-.26.4-.79.52-1.2.26-.4-.26-.52-.79-.26-1.2"/>
    <path class="cls-1" d="m37.66,49.44c.18-.29.57-.37.86-.19.29.18.37.57.19.85-.18.29-.57.37-.86.19-.29-.18-.37-.57-.19-.85"/>
    <path class="cls-1" d="m45.09,57.95c.48-.75,1.48-.97,2.23-.49.75.48.97,1.47.49,2.22-.48.75-1.48.96-2.23.49-.75-.48-.97-1.47-.49-2.22"/>
    <path class="cls-1" d="m39.89,58.14c.48-.75,1.48-.96,2.23-.49.75.48.97,1.47.49,2.22-.48.75-1.48.96-2.23.49-.75-.48-.97-1.47-.49-2.22"/>
    <path class="cls-1" d="m42.19,54.92c.44-.69,1.36-.89,2.06-.45.69.44.89,1.36.45,2.05-.44.69-1.36.89-2.06.45-.69-.44-.89-1.36-.45-2.05"/>
    <path class="cls-1" d="m37.23,54.79c.44-.69,1.36-.89,2.06-.45.69.44.89,1.36.45,2.05-.44.69-1.36.89-2.06.45-.69-.44-.89-1.36-.45-2.05"/>
    <path class="cls-1" d="m43.78,51.79c.41-.63,1.25-.82,1.88-.41.63.41.82,1.25.41,1.88-.41.63-1.25.82-1.89.41-.64-.41-.82-1.24-.41-1.88"/>
    <path class="cls-1" d="m39.49,51.94c.41-.63,1.25-.82,1.88-.41.64.4.82,1.25.41,1.88-.41.63-1.25.82-1.88.41-.63-.4-.82-1.24-.41-1.88"/>
    <path class="cls-1" d="m44.91,48.61c.37-.57,1.14-.74,1.71-.37.58.37.75,1.13.38,1.71-.37.58-1.13.74-1.71.38-.58-.37-.75-1.13-.38-1.71"/>
    <path class="cls-1" d="m41.13,49.25c.37-.57,1.14-.74,1.71-.37.58.37.75,1.13.38,1.71-.37.58-1.14.74-1.72.37-.58-.37-.75-1.13-.38-1.71"/>
    <path class="cls-1" d="m45.08,45.49c.33-.52,1.02-.67,1.54-.34.52.33.67,1.02.34,1.54-.33.52-1.02.67-1.54.34-.52-.33-.67-1.02-.34-1.54"/>
    <path class="cls-1" d="m41.93,46.61c.33-.51,1.02-.67,1.54-.33.52.33.67,1.02.34,1.53-.33.52-1.02.67-1.54.34-.52-.33-.67-1.02-.34-1.54"/>
    <path class="cls-1" d="m44.71,42.76c.3-.46.91-.59,1.37-.3.46.29.6.91.3,1.37-.3.46-.91.59-1.37.3-.46-.29-.59-.9-.3-1.37"/>
    <path class="cls-1" d="m42.22,44.15c.3-.46.91-.59,1.37-.3.46.29.6.91.3,1.37s-.91.59-1.37.3c-.46-.29-.6-.91-.3-1.37"/>
    <path class="cls-1" d="m44.37,40.38c.26-.4.79-.52,1.2-.26.41.26.52.79.26,1.19-.26.4-.8.52-1.2.26-.4-.26-.52-.79-.26-1.2"/>
    <path class="cls-1" d="m42.3,41.84c.26-.4.79-.52,1.2-.26.4.26.52.79.26,1.2-.26.4-.8.52-1.2.26-.41-.26-.52-.79-.26-1.2"/>
    <path class="cls-1" d="m43.95,38.31c.22-.35.68-.45,1.03-.22.35.22.45.68.23,1.02-.22.34-.68.45-1.03.22-.35-.22-.45-.68-.23-1.02"/>
    <path class="cls-1" d="m42.21,39.84c.22-.35.68-.45,1.03-.22.35.22.45.68.22,1.02-.22.34-.68.44-1.03.22-.35-.22-.45-.68-.22-1.02"/>
    <path class="cls-1" d="m43.47,36.51c.19-.29.57-.37.86-.19.29.18.37.57.19.85-.19.29-.57.37-.86.19-.29-.18-.37-.56-.19-.85"/>
    <path class="cls-1" d="m42.01,38.09c.18-.29.57-.37.86-.19.29.18.37.57.19.85-.18.29-.57.37-.86.19-.29-.18-.37-.57-.19-.85"/>
    <path class="cls-1" d="m43.01,34.97c.15-.23.45-.3.69-.15.23.15.3.45.15.68-.15.23-.45.3-.68.15-.23-.15-.3-.45-.15-.68"/>
    <path class="cls-1" d="m41.67,36.6c.15-.23.45-.3.68-.15.23.15.3.45.15.68-.15.23-.45.3-.68.15-.23-.15-.3-.45-.15-.68"/>
    <path class="cls-1" d="m34.73,57.88c.48-.75,1.48-.96,2.23-.49.75.48.97,1.47.49,2.22-.48.75-1.48.96-2.23.49-.75-.48-.97-1.47-.49-2.22"/>
    <path class="cls-1" d="m47.28,54.27c.44-.69,1.36-.89,2.06-.45.69.44.89,1.36.45,2.05-.44.69-1.36.89-2.06.45-.69-.44-.89-1.36-.45-2.05"/>
    <path class="cls-1" d="m48.91,50.78c.41-.63,1.25-.82,1.89-.41.63.41.82,1.25.41,1.88-.41.63-1.25.82-1.88.41-.64-.41-.82-1.24-.41-1.88"/>
    <path class="cls-1" d="m49.97,47.32c.37-.58,1.14-.74,1.71-.37.58.37.74,1.13.37,1.71-.37.57-1.14.74-1.71.37-.58-.37-.75-1.13-.38-1.71"/>
    <path class="cls-1" d="m50.07,43.98c.33-.52,1.02-.67,1.54-.34.52.33.67,1.02.34,1.54-.33.52-1.02.67-1.54.34-.52-.33-.67-1.02-.34-1.54"/>
    <path class="cls-1" d="m49.65,40.92c.3-.46.91-.59,1.37-.3.46.29.6.91.3,1.37-.3.46-.91.59-1.37.3-.46-.29-.6-.91-.3-1.37"/>
    <path class="cls-1" d="m47.35,43.33c.3-.46.91-.59,1.37-.3.46.29.6.91.3,1.37-.3.46-.91.59-1.37.3-.46-.29-.6-.91-.3-1.37"/>
    <path class="cls-1" d="m48.77,38.29c.26-.4.8-.52,1.2-.26.41.26.52.79.26,1.2-.26.4-.79.52-1.2.26-.41-.26-.52-.79-.26-1.19"/>
    <path class="cls-1" d="m46.91,40.58c.26-.4.8-.52,1.2-.26.41.26.52.79.26,1.2-.26.4-.79.52-1.2.26-.41-.26-.52-.79-.26-1.19"/>
    <path class="cls-1" d="m47.81,36.12c.22-.35.68-.45,1.03-.23.35.22.45.68.22,1.03-.22.34-.68.44-1.03.22-.35-.22-.45-.68-.23-1.02"/>
    <path class="cls-1" d="m46.33,38.27c.22-.35.68-.45,1.03-.22.35.22.45.68.22,1.03-.22.35-.68.44-1.03.22-.35-.22-.45-.68-.23-1.02"/>
    <path class="cls-1" d="m47.02,34.09c.19-.29.57-.37.86-.19.29.18.37.57.19.85-.18.29-.57.37-.86.19-.29-.18-.37-.57-.19-.85"/>
    <path class="cls-1" d="m45.74,36.28c.19-.29.57-.37.86-.19.29.18.37.57.19.85-.19.29-.57.37-.86.19-.29-.18-.37-.56-.19-.85"/>
    <path class="cls-1" d="m46.26,32.44c.15-.23.45-.3.69-.15.23.15.3.45.15.68-.15.23-.45.3-.68.15-.23-.15-.3-.45-.15-.68"/>
    <path class="cls-1" d="m45,34.54c.15-.23.46-.3.69-.15.23.15.3.45.15.68-.15.23-.46.3-.68.15-.23-.15-.3-.45-.15-.68"/>
    <path class="cls-1" d="m27.34,64.66c.56-.86,1.71-1.11,2.57-.56.87.55,1.12,1.7.56,2.56-.55.86-1.7,1.11-2.57.56-.86-.55-1.12-1.7-.56-2.56"/>
    <path class="cls-1" d="m33.45,65.68c.56-.86,1.71-1.11,2.57-.56.86.55,1.12,1.7.56,2.56-.55.86-1.7,1.11-2.57.56-.87-.55-1.12-1.7-.56-2.56"/>
    <path class="cls-1" d="m39.55,66.71c.55-.86,1.7-1.11,2.57-.56.87.55,1.12,1.7.56,2.56-.55.86-1.71,1.11-2.57.56-.86-.55-1.12-1.7-.56-2.56"/>
    <path class="cls-1" d="m45.63,31.01c.11-.17.34-.22.51-.11.17.11.22.34.11.51-.11.17-.34.22-.51.11-.17-.11-.22-.34-.11-.51"/>
    <path class="cls-1" d="m44.19,33.02c.11-.17.34-.22.51-.11.17.11.22.34.11.51-.11.17-.34.22-.51.11-.17-.11-.22-.34-.11-.51"/>
    <path class="cls-1" d="m2.46,29.45c.98.3,1.54,1.33,1.24,2.31-.3.98-1.34,1.53-2.32,1.24-.98-.3-1.54-1.33-1.24-2.31.3-.98,1.34-1.54,2.32-1.24"/>
    <path class="cls-1" d="m9.73,49.34c.92.27,1.44,1.24,1.16,2.16-.28.91-1.25,1.43-2.16,1.16-.92-.28-1.44-1.24-1.16-2.16.28-.92,1.25-1.43,2.16-1.16"/>
    <path class="cls-1" d="m8.7,43.99c.92.28,1.44,1.24,1.16,2.16-.28.91-1.25,1.43-2.16,1.16-.92-.28-1.44-1.24-1.16-2.16.28-.92,1.25-1.43,2.16-1.16"/>
    <path class="cls-1" d="m7.67,38.64c.92.28,1.44,1.24,1.16,2.16-.28.92-1.25,1.43-2.16,1.16-.92-.28-1.44-1.24-1.16-2.16.28-.91,1.25-1.43,2.16-1.16"/>
    <path class="cls-1" d="m7,32.97c.85.26,1.34,1.15,1.08,2-.26.85-1.16,1.33-2.01,1.07-.85-.26-1.34-1.15-1.08-2,.26-.85,1.16-1.33,2.01-1.07"/>
    <path class="cls-1" d="m10.92,35.78c.72.22,1.13.97.91,1.69-.22.72-.98,1.12-1.7.91-.72-.22-1.13-.97-.91-1.69.22-.72.98-1.13,1.7-.91"/>
    <path class="cls-1" d="m14.71,38.24c.59.18.92.8.74,1.39-.18.59-.8.92-1.39.74-.59-.18-.92-.8-.75-1.39.18-.59.8-.92,1.39-.74"/>
    <path class="cls-1" d="m17.77,39.88c.46.14.72.62.58,1.08-.14.46-.62.72-1.08.58-.46-.14-.72-.62-.58-1.08.14-.46.62-.72,1.08-.58"/>
    <path class="cls-1" d="m20.64,41.31c.33.1.51.45.41.77-.1.33-.44.51-.77.41-.33-.1-.51-.44-.41-.77.1-.33.44-.51.77-.41"/>
    <path class="cls-1" d="m14.46,50.76c.85.26,1.34,1.15,1.08,2-.26.85-1.16,1.33-2.01,1.07-.85-.26-1.33-1.15-1.08-2,.26-.85,1.16-1.33,2.01-1.07"/>
    <path class="cls-1" d="m12.85,45.82c.85.26,1.34,1.15,1.08,2-.26.85-1.16,1.33-2.01,1.07-.85-.26-1.33-1.15-1.08-2,.26-.85,1.16-1.33,2.01-1.07"/>
    <path class="cls-1" d="m16.59,47.15c.79.24,1.23,1.06,1,1.85-.24.78-1.07,1.23-1.85.99-.79-.24-1.23-1.06-.99-1.85.24-.79,1.07-1.23,1.85-.99"/>
    <path class="cls-1" d="m15.36,42.36c.79.24,1.23,1.06.99,1.85-.24.79-1.07,1.23-1.85.99-.79-.24-1.23-1.06-.99-1.85.24-.78,1.07-1.23,1.86-.99"/>
    <path class="cls-1" d="m20.04,47.82c.72.22,1.13.98.91,1.69-.22.72-.98,1.13-1.7.91-.72-.22-1.13-.97-.91-1.69.22-.72.98-1.13,1.7-.91"/>
    <path class="cls-1" d="m18.73,43.74c.72.22,1.13.98.91,1.69-.22.72-.98,1.13-1.7.91-.72-.22-1.13-.97-.91-1.69.22-.72.98-1.13,1.7-.91"/>
    <path class="cls-1" d="m23.42,48.03c.66.2,1.03.88.83,1.54-.2.65-.89,1.02-1.55.82-.66-.2-1.03-.89-.83-1.54.2-.65.89-1.02,1.55-.83"/>
    <path class="cls-1" d="m21.78,44.59c.66.2,1.03.89.83,1.54-.2.65-.89,1.02-1.55.83-.65-.2-1.03-.89-.83-1.54.2-.65.89-1.02,1.55-.83"/>
    <path class="cls-1" d="m26.49,47.35c.59.18.92.8.75,1.39-.18.59-.8.92-1.39.74-.59-.18-.92-.8-.75-1.39.18-.59.8-.92,1.39-.74"/>
    <path class="cls-1" d="m24.54,44.63c.59.18.92.8.75,1.39-.18.59-.8.92-1.39.74-.59-.18-.92-.8-.75-1.39.18-.59.8-.92,1.39-.74"/>
    <path class="cls-1" d="m29.02,46.24c.52.16.82.71.66,1.23-.16.52-.71.82-1.24.66-.52-.16-.82-.71-.66-1.23.16-.52.71-.82,1.24-.66"/>
    <path class="cls-1" d="m27,44.23c.52.16.82.71.66,1.23-.16.52-.71.82-1.24.66-.52-.16-.82-.71-.66-1.23.16-.52.71-.82,1.24-.66"/>
    <path class="cls-1" d="m31.23,45.27c.46.14.72.62.58,1.08-.14.46-.62.72-1.08.58-.46-.14-.72-.62-.58-1.08.14-.46.62-.72,1.08-.58"/>
    <path class="cls-1" d="m29.25,43.68c.46.14.72.62.58,1.08-.14.46-.62.72-1.08.58-.46-.14-.72-.62-.58-1.08.14-.46.62-.72,1.08-.58"/>
    <path class="cls-1" d="m33.11,44.31c.39.12.62.53.5.92-.12.39-.53.61-.93.49-.39-.12-.62-.53-.5-.92.12-.39.54-.61.93-.49"/>
    <path class="cls-1" d="m31.15,43.05c.39.12.62.53.5.92-.12.39-.53.61-.93.5-.39-.12-.62-.53-.5-.92.12-.39.53-.61.93-.49"/>
    <path class="cls-1" d="m34.72,43.35c.33.1.51.44.41.77-.1.33-.44.51-.77.41-.33-.1-.51-.44-.41-.77.1-.33.44-.51.77-.41"/>
    <path class="cls-1" d="m32.78,42.38c.33.1.51.44.41.77-.1.33-.44.51-.77.41-.33-.1-.51-.44-.41-.77.1-.33.45-.51.77-.41"/>
    <path class="cls-1" d="m36.08,42.49c.26.08.41.36.33.62-.08.26-.36.41-.62.33-.26-.08-.41-.36-.33-.62.08-.26.35-.41.62-.33"/>
    <path class="cls-1" d="m34.14,41.64c.26.08.41.35.33.62-.08.26-.36.41-.62.33-.26-.08-.41-.35-.33-.62.08-.26.36-.41.62-.33"/>
    <path class="cls-1" d="m11.69,40.81c.85.26,1.33,1.15,1.08,2-.26.85-1.16,1.33-2.01,1.07-.85-.26-1.33-1.15-1.08-2,.26-.85,1.16-1.33,2.01-1.07"/>
    <path class="cls-1" d="m18.61,51.85c.79.24,1.23,1.06,1,1.85-.24.78-1.07,1.23-1.86.99-.79-.24-1.23-1.06-.99-1.85.24-.78,1.07-1.23,1.85-.99"/>
    <path class="cls-1" d="m22.42,52.46c.72.22,1.13.98.91,1.69-.22.72-.98,1.13-1.7.91-.72-.22-1.13-.97-.91-1.69.22-.72.98-1.12,1.7-.91"/>
    <path class="cls-1" d="m26.05,52.53c.66.2,1.03.89.83,1.54-.2.65-.89,1.02-1.55.83-.66-.2-1.03-.89-.83-1.54.2-.66.89-1.02,1.55-.83"/>
    <path class="cls-1" d="m29.3,51.72c.59.18.93.8.75,1.39-.18.59-.8.92-1.39.74-.59-.18-.92-.8-.75-1.39.18-.59.8-.92,1.39-.74"/>
    <path class="cls-1" d="m32.14,50.47c.53.16.82.71.67,1.23-.16.52-.71.82-1.24.66-.53-.16-.82-.71-.66-1.23.16-.52.71-.82,1.24-.66"/>
    <path class="cls-1" d="m29.18,48.93c.53.16.82.71.66,1.23-.16.53-.71.82-1.24.66-.52-.16-.82-.71-.66-1.23.16-.52.71-.82,1.24-.66"/>
    <path class="cls-1" d="m34.45,48.91c.46.14.72.62.58,1.08-.14.46-.62.72-1.08.58-.46-.14-.72-.62-.58-1.08.14-.46.62-.72,1.08-.58"/>
    <path class="cls-1" d="m31.72,47.75c.46.14.72.62.58,1.08-.14.46-.62.72-1.08.58-.46-.14-.72-.62-.58-1.08.14-.46.62-.72,1.08-.58"/>
    <path class="cls-1" d="m36.28,47.41c.39.12.62.53.5.93-.12.39-.53.61-.93.5-.39-.12-.62-.53-.5-.93.12-.39.53-.61.93-.5"/>
    <path class="cls-1" d="m33.79,46.57c.39.12.62.53.5.92-.12.39-.53.62-.93.5-.4-.12-.62-.53-.5-.92.12-.39.53-.61.93-.5"/>
    <path class="cls-1" d="m38.02,46.09c.33.1.51.44.42.77-.1.33-.44.51-.77.41-.33-.1-.51-.44-.41-.77.1-.33.44-.51.77-.41"/>
    <path class="cls-1" d="m35.56,45.46c.33.1.51.44.41.77-.1.33-.44.51-.77.41-.33-.1-.51-.44-.41-.77.1-.33.44-.51.77-.41"/>
    <path class="cls-1" d="m39.41,44.91c.26.08.41.35.33.61-.08.26-.36.41-.62.33-.26-.08-.41-.35-.33-.62.08-.26.36-.41.62-.33"/>
    <path class="cls-1" d="m37.04,44.28c.26.08.41.35.33.62-.08.26-.35.41-.62.33-.26-.08-.41-.36-.33-.62.08-.26.36-.41.62-.33"/>
    <path class="cls-1" d="m3.13,35.58c.98.3,1.54,1.33,1.24,2.31-.3.98-1.33,1.54-2.32,1.24-.98-.3-1.54-1.33-1.24-2.31.3-.98,1.33-1.53,2.32-1.24"/>
    <path class="cls-1" d="m3.81,41.71c.98.3,1.54,1.33,1.24,2.31-.3.98-1.34,1.53-2.32,1.24-.98-.3-1.54-1.33-1.24-2.31.3-.98,1.33-1.53,2.32-1.24"/>
    <path class="cls-1" d="m4.49,47.84c.98.3,1.54,1.33,1.24,2.31-.3.98-1.34,1.53-2.32,1.24-.98-.3-1.54-1.33-1.24-2.31.3-.98,1.33-1.53,2.32-1.24"/>
    <path class="cls-1" d="m40.61,43.92c.2.06.31.27.25.46-.06.19-.27.31-.47.25-.2-.06-.31-.26-.25-.46.06-.2.27-.31.46-.25"/>
    <path class="cls-1" d="m38.28,43.09c.2.06.31.27.25.46-.06.2-.27.31-.46.25-.2-.06-.31-.27-.25-.46.06-.2.27-.31.46-.25"/>
  </g>
  <g>
    <path class="cls-1" d="m38.74,85.18c0,2.78-1.7,4.27-3.78,4.27s-3.66-1.67-3.66-4.13,1.59-4.26,3.77-4.26,3.67,1.7,3.67,4.12m-6.33.12c0,1.75.94,3.3,2.61,3.3s2.61-1.53,2.61-3.37c0-1.63-.85-3.31-2.6-3.31s-2.62,1.61-2.62,3.38Z"/>
    <polygon class="cls-1" points="45.4 82.1 42.92 82.1 42.92 81.21 48.95 81.21 48.95 82.1 46.46 82.1 46.46 89.32 45.4 89.32 45.4 82.1"/>
    <polygon class="cls-1" points="58.11 85.52 54.96 85.52 54.96 88.45 58.49 88.45 58.49 89.32 53.9 89.32 53.9 81.21 58.31 81.21 58.31 82.09 54.96 82.09 54.96 84.65 58.11 84.65 58.11 85.52"/>
    <path class="cls-1" d="m69.58,89.07c-.37.19-1.16.38-2.15.38-2.3,0-4.01-1.44-4.01-4.12s1.73-4.26,4.25-4.26c1,0,1.66.22,1.93.36l-.27.85c-.39-.19-.95-.34-1.63-.34-1.91,0-3.18,1.22-3.18,3.35,0,2,1.15,3.26,3.12,3.26.65,0,1.31-.13,1.73-.34l.21.84Z"/>
    <path class="cls-1" d="m26.66,89.07c-.37.19-1.16.38-2.15.38-2.3,0-4.01-1.44-4.01-4.12s1.73-4.26,4.25-4.26c1,0,1.66.22,1.93.36l-.27.85c-.39-.19-.96-.34-1.63-.34-1.91,0-3.18,1.22-3.18,3.35,0,2,1.15,3.26,3.12,3.26.65,0,1.3-.13,1.73-.34l.2.84Z"/>
    <polygon class="cls-1" points="2.48 82.1 0 82.1 0 81.21 6.03 81.21 6.03 82.1 3.54 82.1 3.54 89.32 2.48 89.32 2.48 82.1"/>
    <polygon class="cls-1" points="15.19 85.52 12.04 85.52 12.04 88.45 15.56 88.45 15.56 89.32 10.97 89.32 10.97 81.21 15.38 81.21 15.38 82.09 12.04 82.09 12.04 84.65 15.19 84.65 15.19 85.52"/>
  </g>
  <g>
    <path class="cls-1" d="m13.99,98.17l.92-5.65h-1.81l.11-.66h4.29l-.1.66h-1.81l-.92,5.65h-.68Z"/>
    <path class="cls-1" d="m17.57,96.43c0-.29.04-.58.07-.75l.12-.71c.18-1.08.93-1.71,1.94-1.71,1.38,0,1.74,1.19,1.6,2.04l-.11.65h-2.94c-.02.08-.04.25-.04.42,0,.62.28,1.25,1.1,1.25.57,0,.93-.3,1.02-.62h.67c-.11.6-.75,1.27-1.75,1.27s-1.69-.63-1.69-1.82Zm3.09-1.15c.14-.77-.22-1.4-.98-1.4-.55,0-1.1.34-1.25,1.15l-.06.33h2.28v-.07Z"/>
    <path class="cls-1" d="m22.27,95.68l.11-.69c.18-1.14.9-1.75,1.89-1.75,1.07,0,1.67.72,1.67,1.51v.05h-.63v-.05c0-.4-.36-.9-1.04-.9-.63,0-1.12.47-1.26,1.32l-.09.55c-.03.2-.05.34-.05.49,0,.86.38,1.38,1.12,1.38.55,0,.9-.29.98-.63h.69c-.13.78-.81,1.28-1.7,1.28-1.06,0-1.76-.73-1.76-1.87,0-.19.02-.45.06-.7Z"/>
    <path class="cls-1" d="m27.69,91.62h.67l-.42,2.51h.05c.22-.55.68-.88,1.34-.88.96,0,1.38.73,1.38,1.52,0,.25-.04.52-.08.79l-.42,2.61h-.67l.43-2.66c.02-.13.06-.39.06-.61,0-.54-.23-1.03-.89-1.03-.79,0-1.24.71-1.37,1.5l-.45,2.8h-.68l1.06-6.55Z"/>
    <path class="cls-1" d="m32.5,93.33h.66l-.14.8h.05c.25-.56.7-.88,1.33-.88.98,0,1.37.74,1.37,1.52,0,.26-.04.53-.08.79l-.42,2.61h-.67l.43-2.66c.02-.14.06-.38.06-.6,0-.54-.22-1.04-.88-1.04-.79,0-1.24.71-1.36,1.5l-.45,2.8h-.68l.79-4.84Z"/>
    <path class="cls-1" d="m37.01,95.05c.18-1.14.94-1.81,1.89-1.81,1.08,0,1.82.74,1.82,1.94,0,.14-.02.37-.05.58l-.11.66c-.19,1.13-.82,1.82-1.95,1.82-.99,0-1.75-.69-1.75-1.85,0-.23.01-.47.05-.69l.1-.65Zm.55.71c-.03.15-.05.3-.05.52,0,.79.44,1.33,1.18,1.33.66,0,1.1-.49,1.24-1.37l.1-.61c.02-.14.02-.37.02-.43,0-.76-.45-1.31-1.17-1.31-.6,0-1.08.4-1.23,1.31l-.09.57Z"/>
    <path class="cls-1" d="m42.72,91.62h.67l-1.07,6.55h-.67l1.07-6.55Z"/>
    <path class="cls-1" d="m44.16,95.05c.18-1.14.94-1.81,1.89-1.81,1.08,0,1.82.74,1.82,1.94,0,.14-.02.37-.05.58l-.11.66c-.19,1.13-.82,1.82-1.95,1.82-.99,0-1.75-.69-1.75-1.85,0-.23.01-.47.05-.69l.1-.65Zm.55.71c-.03.15-.05.3-.05.52,0,.79.44,1.33,1.18,1.33.66,0,1.1-.49,1.24-1.37l.1-.61c.02-.14.02-.37.02-.43,0-.76-.45-1.31-1.17-1.31-.6,0-1.08.4-1.23,1.31l-.09.57Z"/>
    <path class="cls-1" d="m52.18,94.26h.06l.15-.93h.66l-.78,4.81c-.2,1.25-.85,1.87-2.02,1.87-1.04,0-1.69-.67-1.69-1.38v-.05h.66v.04c0,.36.42.76,1.07.76.83,0,1.21-.5,1.36-1.37l.12-.72h-.06c-.16.44-.59.8-1.26.8-.82,0-1.62-.69-1.62-1.85,0-.18.03-.48.06-.66l.1-.57c.22-1.23,1.01-1.77,1.84-1.77.74,0,1.21.46,1.35,1.01Zm-1.31-.39c-.66,0-1.11.54-1.25,1.37l-.07.39c-.02.13-.05.39-.05.51,0,.9.46,1.34,1.17,1.34.63,0,1.13-.55,1.26-1.37l.07-.45c.04-.27.04-.41.04-.44,0-.85-.5-1.35-1.17-1.35Z"/>
    <path class="cls-1" d="m55.58,98.14l-.18.38c-.42.88-.71,1.26-1.68,1.26-.15,0-.25-.02-.35-.06l.13-.6c.11.03.19.04.32.04.53,0,.75-.34.96-.83l.1-.24-.86-4.77h.72l.59,3.96h.05l1.76-3.96h.73l-2.29,4.82Z"/>
  </g>
</svg>